<svg xmlns="http://www.w3.org/2000/svg" direction="ltr" width="212.52110949370513" height="152.95336162575052" viewBox="1071.078095260645 300.1579130934654 212.52110949370513 152.95336162575052" stroke-linecap="round" stroke-linejoin="round" data-color-mode="light" class="tl-container tl-theme__force-sRGB tl-theme__light" style="background-color: rgb(249, 250, 251);"><defs/><g transform="matrix(1, 0, 0, 1, 1132.8867, 374.2266)" opacity="1"><g transform="scale(1)"><path d="M-1.0741,3.3944 T-2.1575,3.0636 -4.8173,2.1466 -7.8437,1.1062 -10.7729,0.6565 -13.7457,0.6767 -16.63,0.9306 -19.291,1.7896 -21.9223,3.3234 -24.0492,5.4607 -25.1654,8.0376 -25.6549,10.8855 -25.8257,13.8466 -25.871,17.0426 -25.8916,20.4868 -25.7908,23.657 -25.2375,26.9076 -24.3316,30.6157 -23.4105,34.0939 -22.0458,36.9236 -21.1416,38.1885 A3.862,3.862 0 0 1 -25.6341,44.4716 T-27.1777,43.0279 -29.2993,40.2766 -30.407,37.3562 -31.4832,33.7794 -32.5337,29.8532 -33.3414,26.2865 -33.6823,23.0516 -33.726,19.6927 -33.7344,16.1469 -33.6861,12.6922 -33.4747,9.512 -32.9565,6.5399 -31.983,3.6428 -30.4467,0.923 -28.5041,-1.3267 -26.0133,-3.2751 -23.1011,-4.975 -20.3015,-6.1582 -17.3725,-6.7555 -14.3353,-6.9023 -11.4226,-6.8529 -8.5248,-6.6274 -5.4821,-5.8829 -2.5125,-4.7245 -0.0313,-3.7562 1.0741,-3.3944 A3.5603,3.5603 0 0 1 -1.0741,3.3944 Z" stroke-linecap="round" fill="#1d1d1d"/></g></g><g transform="matrix(1, 0, 0, 1, 1132.6055, 375.7695)" opacity="1"><g transform="scale(1)"><path d="M-3.4008,0 T-3.4003,-0.9302 -3.4333,-3.5983 -3.5069,-6.9484 -3.5218,-10.547 -3.2405,-14.1821 -2.6443,-17.3761 -1.7817,-20.4076 -0.6744,-23.234 0.5793,-25.8314 2.216,-28.504 4.2793,-31.1559 6.4338,-33.4896 8.6288,-35.6312 11.1652,-37.7687 14.1125,-39.9813 17.4259,-42.1554 20.8818,-43.9998 24.1793,-45.3453 27.2756,-46.2749 30.5079,-46.8278 33.8495,-47.063 37.0899,-47.134 41.0403,-46.6479 45.2092,-45.2403 48.6515,-43.182 51.7839,-40.6174 54.8283,-37.5685 57.4164,-34.4236 59.2614,-31.6582 60.7263,-29.1004 62.0014,-26.3523 62.8156,-23.4919 63.4065,-20.4986 64.0854,-17.5162 64.5217,-14.1938 64.616,-12.2747 A3.7754,3.7754 0 0 1 57.0652,-12.2456 T56.8405,-14.5367 56.3466,-18.3398 55.7383,-21.7761 54.82,-25.0157 53.5306,-27.6908 51.9628,-30.2663 49.8697,-32.801 47.2771,-35.3216 44.1971,-37.7072 40.6295,-39.4828 37.1989,-40.055 34.184,-39.9915 30.9328,-39.735 27.2575,-38.9529 24.0214,-37.7397 21.2029,-36.2126 18.3623,-34.2707 15.7157,-32.2189 13.0621,-29.8838 10.2818,-27.0416 7.9342,-24.0176 6.1961,-20.9013 4.8906,-17.6332 3.9931,-14.0547 3.5948,-10.356 3.5069,-6.9484 3.4333,-3.5983 3.4003,-0.9302 3.4008,0 A3.4008,3.4008 0 0 1 -3.4008,0 Z" stroke-linecap="round" fill="#1d1d1d"/></g></g><g transform="matrix(1, 0, 0, 1, 1193.1602, 366.3711)" opacity="1"><g transform="scale(1)"><path d="M-1.4254,-3.0715 T-0.3722,-3.5425 2.0312,-4.7474 4.6801,-6.2243 7.2509,-7.716 9.7702,-9.2497 12.2444,-10.7802 14.8852,-12.1591 17.8787,-13.3426 20.8486,-14.1916 23.8187,-14.7042 26.8448,-14.9731 29.9014,-15.0546 33.4783,-14.9616 37.2799,-14.1679 40.6324,-12.5694 43.651,-10.5299 46.3824,-8.343 48.6723,-6.203 50.7692,-4.0807 52.8152,-1.8036 54.6766,0.7658 56.1468,3.3641 57.4446,6.0924 58.7302,9.1405 59.9721,12.323 60.9708,15.3167 61.5879,18.2478 62.0416,21.4921 62.2685,24.8401 62.2958,27.8966 62.2947,30.9985 62.3107,34.2866 61.9721,37.7007 61.0149,40.8243 59.667,43.3144 57.8968,45.6536 55.7875,47.7412 53.3136,49.4516 50.4772,51.0475 47.4891,52.6493 44.3541,53.7441 41.1299,54.11 37.9939,54.1593 34.6762,54.1499 31.4242,54.1326 28.4827,54.1248 25.3811,54.1233 22.2286,54.126 19.1994,54.1381 16.128,54.1479 12.9451,54.1514 9.4765,54.1419 5.7377,54.1099 2.1645,54.0771 -1.2931,54.0546 -4.6343,54.0397 -7.9661,54.0396 -11.2976,54.0497 -14.3387,54.1581 -17.2809,54.324 -20.2083,54.5146 -23.4356,54.8495 -26.9396,55.2936 -30.1288,55.766 -33.178,56.1987 -36.307,56.5703 -39.5222,56.8944 -42.9453,57.183 -46.4173,57.4481 -49.7806,57.6842 -53.261,57.9633 -56.5926,58.2239 -59.6633,58.4367 -62.9161,58.5817 -66.2699,58.6119 -69.4438,58.6195 -72.6073,58.6196 -75.9658,58.6161 -79.1674,58.6208 -83.3376,58.4055 -86.0186,58.1833 A3.9263,3.9263 0 0 1 -84.5891,50.4619 T-83.1167,50.6539 -80.0194,50.8554 -76.7745,50.8646 -73.436,50.8616 -70.2036,50.8602 -67.2786,50.8647 -64.1956,50.876 -61.1228,50.8459 -58.1087,50.6941 -54.8226,50.4317 -51.4145,50.1293 -47.9935,49.8536 -44.8591,49.6302 -41.8075,49.4042 -38.6659,49.1294 -35.6265,48.7847 -32.4799,48.3806 -29.4491,47.9382 -26.6761,47.5366 -23.7892,47.2081 -20.8508,46.9203 -17.7994,46.7146 -14.5424,46.5205 -11.2981,46.4097 -7.9661,46.4197 -4.6343,46.4197 -1.2931,46.4048 2.1645,46.3823 5.7377,46.3495 9.4765,46.3175 12.9451,46.308 16.128,46.3115 19.1994,46.3213 22.2286,46.3334 25.3811,46.3361 28.4826,46.3346 31.424,46.3267 34.2623,46.3104 37.2288,46.2951 40.4707,46.2534 43.5107,45.6942 46.3288,44.354 49.1246,42.7967 51.5893,40.8967 53.4305,38.4482 54.3604,35.6022 54.5789,32.6236 54.5828,29.7699 54.5712,26.668 54.4408,23.2877 54.0512,19.8577 53.3405,16.6266 52.3693,13.791 51.273,11.0787 50.0401,8.3099 48.5566,5.5412 46.7765,2.9904 44.6964,0.6214 42.4699,-1.5849 40.03,-3.7163 37.3686,-5.7191 34.5834,-7.0781 31.5667,-7.5749 28.3657,-7.5752 25.1755,-7.4184 22.174,-6.9903 19.0852,-6.098 16.0464,-4.7602 13.3436,-3.2926 10.6768,-1.7782 7.9584,-0.2694 5.0558,1.2685 2.4652,2.5712 1.4254,3.0715 A3.3861,3.3861 0 0 1 -1.4254,-3.0715 ZM-88.8579,55.9912 T-89.25,55.1425 -89.642,54.2939 A3.9148,3.9148 0 0 1 -82.5547,50.9665 T-82.1522,51.8102 -81.7497,52.654 A3.9263,3.9263 0 0 1 -88.8579,55.9912 Z" stroke-linecap="round" fill="#1d1d1d"/></g></g></svg>