<svg xmlns="http://www.w3.org/2000/svg" direction="ltr" width="175.20187682306027" height="163.67642208053815" viewBox="872.0075784378445 503.328125 175.20187682306027 163.67642208053815" stroke-linecap="round" stroke-linejoin="round" data-color-mode="light" class="tl-container tl-theme__force-sRGB tl-theme__light" style="background-color: rgb(249, 250, 251);"><defs/><g transform="matrix(1, 0, 0, 1, 960.2405, 535.3281)" opacity="1"><g transform="scale(1)"><path d="M0.1204,-3.3695 T1.2701,-3.3136 4.4507,-2.8875 8.1209,-1.9637 11.059,-0.8591 13.9636,0.6455 17.0808,2.6743 19.8546,4.6938 22.2361,6.4955 24.5844,8.2718 27.3002,10.2193 30.0894,12.1711 32.7008,14.1114 35.3742,16.4354 37.742,18.7256 39.7025,20.8656 41.6874,23.3331 43.6684,26.0447 45.5548,28.7286 47.3731,31.3039 49.2899,34.3744 50.9238,37.4631 52.1948,40.2271 53.5407,43.3485 54.7264,46.3542 55.9413,49.5186 57.1305,52.996 57.9662,56.347 58.5146,59.5596 58.7382,62.6855 58.7766,65.7034 58.798,68.7137 58.6532,71.7981 57.8548,74.9931 56.351,78.3213 54.5629,81.4319 52.7067,84.2756 50.8239,86.8267 48.6421,89.3903 46.3593,91.6913 43.9998,93.7008 41.3543,95.5873 38.426,97.1063 35.3156,98.2947 32.3652,99.1586 29.552,99.9646 26.5755,100.8371 23.5706,101.5311 20.5457,102.0438 17.5386,102.5075 14.6534,102.9134 11.2973,103.3006 7.595,103.5082 3.919,103.5288 0.6618,103.5327 -2.1614,103.5495 -5.1274,103.5499 -8.1237,103.3655 -11.8223,102.4822 -14.0846,101.7719 A3.9175,3.9175 0 0 1 -11.3732,94.421 T-10.2024,94.8495 -7.4967,95.5265 -4.3169,95.7871 -1.101,95.8107 2.1659,95.8221 5.7043,95.8117 8.9971,95.7494 12.0614,95.4717 15.3397,95.061 18.4912,94.6413 21.5065,94.1522 24.5833,93.4817 27.4671,92.6503 30.304,91.8377 33.2737,90.9579 36.1257,89.8358 38.7573,88.2311 41.1188,86.3356 43.1998,84.3422 45.3135,81.7206 47.2373,78.9174 48.9384,75.9368 50.4678,72.777 51.1075,69.8904 51.1535,66.7417 51.1747,63.4363 51.0435,60.274 50.5918,57.2215 49.8526,54.2779 48.6605,50.9233 47.3637,47.6852 46.1341,44.8775 44.544,41.5459 42.9515,38.4793 41.3078,35.822 39.3691,33.0216 37.4713,30.331 35.6305,27.7807 33.7773,25.4529 31.8238,23.3097 29.7222,21.2185 27.4673,19.23 25.0176,17.391 22.623,15.6684 20.3069,13.9603 17.4107,11.7485 14.0352,9.2088 10.8632,6.9422 7.6941,5.1648 4.1073,3.9319 1.0283,3.3957 -0.1204,3.3695 A3.3717,3.3717 0 0 1 0.1204,-3.3695 Z" stroke-linecap="round" fill="#1d1d1d"/></g></g><g transform="matrix(1, 0, 0, 1, 958.9766, 535.3281)" opacity="1"><g transform="scale(1)"><path d="M0.1204,3.3695 T-1.0283,3.3957 -4.1073,3.9319 -7.6941,5.1648 -10.8632,6.9422 -14.0352,9.2088 -17.4107,11.7485 -20.3069,13.9603 -22.623,15.6684 -25.0176,17.391 -27.4673,19.23 -29.7222,21.2185 -31.8238,23.3097 -33.7773,25.4529 -35.6305,27.7807 -37.4713,30.331 -39.3691,33.0216 -41.3078,35.822 -42.9515,38.4793 -44.544,41.5459 -46.1341,44.8775 -47.3637,47.6852 -48.6605,50.9233 -49.8526,54.2779 -50.5918,57.2215 -51.0435,60.274 -51.1747,63.4363 -51.1535,66.7417 -51.1075,69.8904 -50.4678,72.777 -48.9384,75.9368 -47.2373,78.9174 -45.3135,81.7206 -43.1998,84.3422 -41.1188,86.3356 -38.7573,88.2311 -36.1257,89.8358 -33.2737,90.9579 -30.304,91.8377 -27.4671,92.6503 -24.5833,93.4817 -21.5065,94.1522 -18.4912,94.6413 -15.3397,95.061 -12.0614,95.4717 -8.9971,95.7494 -5.7043,95.8117 -2.1659,95.8221 1.101,95.8107 4.3169,95.7871 7.4967,95.5265 10.2024,94.8495 11.3732,94.421 A3.9175,3.9175 0 0 1 14.0846,101.7719 T11.8223,102.4822 8.1237,103.3655 5.1274,103.5499 2.1614,103.5495 -0.6618,103.5327 -3.919,103.5288 -7.595,103.5082 -11.2973,103.3006 -14.6534,102.9134 -17.5386,102.5075 -20.5457,102.0438 -23.5706,101.5311 -26.5755,100.8371 -29.552,99.9646 -32.3652,99.1586 -35.3156,98.2947 -38.426,97.1063 -41.3543,95.5873 -43.9998,93.7008 -46.3593,91.6913 -48.6421,89.3903 -50.8239,86.8267 -52.7067,84.2756 -54.5629,81.4319 -56.351,78.3213 -57.8548,74.9931 -58.6532,71.7981 -58.798,68.7137 -58.7766,65.7034 -58.7382,62.6855 -58.5146,59.5596 -57.9662,56.347 -57.1305,52.996 -55.9413,49.5186 -54.7264,46.3542 -53.5407,43.3485 -52.1948,40.2271 -50.9238,37.4631 -49.2899,34.3744 -47.3731,31.3039 -45.5548,28.7286 -43.6684,26.0447 -41.6874,23.3331 -39.7025,20.8656 -37.742,18.7256 -35.3742,16.4354 -32.7008,14.1114 -30.0894,12.1711 -27.3002,10.2193 -24.5844,8.2718 -22.2361,6.4955 -19.8546,4.6938 -17.0808,2.6743 -13.9636,0.6455 -11.059,-0.8591 -8.1209,-1.9637 -4.4507,-2.8875 -1.2701,-3.3136 -0.1204,-3.3695 A3.3717,3.3717 0 0 1 0.1204,3.3695 Z" stroke-linecap="round" fill="#1d1d1d"/></g></g><g transform="matrix(1, 0, 0, 1, 932.3459, 572.3008)" opacity="1"><g transform="scale(1)"><path d="M-0.2463,-3.5222 T1.0316,-3.622 3.8229,-3.7967 6.7507,-3.9029 9.6903,-3.8733 12.5946,-3.5418 15.3586,-2.8745 18.1533,-1.9486 21.1229,-0.6826 24.0318,1.0212 26.4256,3.107 28.5129,5.7917 30.0975,8.655 30.8594,11.6507 31.0914,14.9605 31.1056,18.277 31.0633,21.9414 30.6615,25.5367 29.7591,28.8617 28.472,32.0025 26.7503,34.7858 24.663,37.5501 22.4093,40.0333 19.8108,41.9351 16.9011,43.402 14.1129,44.5047 11.0828,45.4411 7.8523,46.0786 4.6298,46.2987 1.1367,46.2347 -2.3499,45.6667 -5.5964,44.3284 -8.4882,42.4472 -10.9179,40.4179 -13.0363,38.2452 -14.9982,35.8071 -16.7806,33.0932 -18.2157,30.2362 -19.0965,27.2834 -19.4004,24.0829 -19.3762,20.9567 -18.9128,17.5136 -17.8131,13.7601 -16.4122,10.6409 -14.5742,7.8397 -12.3961,5.2508 -10.0122,3.1067 -7.428,1.265 -4.8645,-0.5292 -3.5628,-1.485 A3.8855,3.8855 0 0 1 1.0239,4.7882 T-0.0301,5.5791 -2.4582,7.3196 -5.1213,9.2061 -7.4131,11.3003 -9.2698,13.8806 -10.6563,16.8567 -11.3645,19.9988 -11.5326,22.9921 -11.2347,25.9331 -10.1893,28.8129 -8.5447,31.3515 -6.5628,33.7056 -4.3663,35.7366 -1.8441,37.4179 1.2508,38.3364 4.3764,38.4417 7.2426,38.2321 10.1949,37.5509 13.1194,36.5 15.7949,35.1586 18.0751,33.2521 20.1035,30.6735 21.7758,27.9505 22.7795,25.2547 23.2192,22.3273 23.2934,19.0214 23.2927,15.6488 22.9843,12.5149 21.8643,9.7025 19.8065,7.4454 17.03,5.7851 13.8859,4.5731 10.4986,3.7355 7.2764,3.4171 4.2767,3.3794 1.4857,3.446 0.2463,3.5222 A3.5308,3.5308 0 0 1 -0.2463,-3.5222 Z" stroke-linecap="round" fill="#1d1d1d"/></g></g><g transform="matrix(1, 0, 0, 1, 937.6233, 586.2188)" opacity="1"><g transform="scale(1)"><path d="M-1.3377,-3.3796 T-0.1093,-3.874 2.6131,-4.5478 6.1363,-4.243 9.0384,-2.4281 10.3764,0.305 11.3805,3.2741 12.2915,6.1948 12.6939,8.9478 12.621,12.0379 11.4671,15.0528 8.7992,17.2607 5.5725,18.5283 2.5593,18.9329 -0.3528,18.9604 -3.3987,18.907 -6.4469,18.2315 -9.0212,16.6209 -11.0059,14.3942 -12.4618,11.5137 -13.1355,8.2772 -13.3054,5.2257 -13.2089,2.1219 -12.317,-0.7261 -10.5039,-2.8564 -8.1829,-4.446 -5.3328,-5.672 -2.211,-6.5464 0.8189,-6.8704 4.2323,-6.4095 7.2767,-5.0057 9.4246,-3.0657 11.5168,-0.8454 13.366,1.9436 14.2113,4.9704 14.1779,7.9328 13.0054,10.8675 10.5113,12.6487 7.4835,13.7133 4.4624,14.4857 1.2195,13.718 -1.2646,11.2269 -2.39,8.18 -1.3833,5.8672 0.4602,4.885 0.8183,4.8283 A4.0444,4.0444 0 0 1 -6.7766,7.6116 T-7.1082,4.7452 -6.0436,0.5713 -2.8785,-0.7967 0.3366,-0.3935 2.9394,1.3262 4.8494,4.1473 5.9344,7.2318 5.04,7.5792 5.2756,6.2222 5.6822,4.8495 3.8715,2.4506 1.7142,1.2388 -1.0923,1.5167 -3.879,2.0966 -5.2599,3.8238 -5.1246,6.7304 -4.4358,9.5696 -2.4755,10.9322 0.3953,10.9433 3.3547,11.0479 4.863,9.692 4.5266,6.8014 3.6598,4.0229 2.2405,3.0305 1.3377,3.3796 A3.6347,3.6347 0 0 1 -1.3377,-3.3796 Z" stroke-linecap="round" fill="#4ba1f1"/></g></g><g transform="matrix(1, 0, 0, 1, 937.7756, 592.9297)" opacity="1"><g transform="scale(1)"><path d="M0.2033,-3.6295 T1.1236,-3.593 2.0438,-3.5564 A3.6651,3.6651 0 0 1 1.6339,3.7624 T0.7153,3.696 -0.2033,3.6295 A3.6352,3.6352 0 0 1 0.2033,-3.6295 ZM5.1956,-1.3686 T5.2082,-1.3423 5.2208,-1.316 A3.6671,3.6671 0 0 1 -1.4964,1.6287 T-1.5071,1.6016 -1.5179,1.5746 A3.6651,3.6651 0 0 1 5.1956,-1.3686 ZM-1.1953,2.1811 T-1.8148,1.3184 -2.4342,0.4557 A3.7475,3.7475 0 0 1 3.8149,-3.6824 T4.3673,-2.7754 4.9198,-1.8684 A3.6671,3.6671 0 0 1 -1.1953,2.1811 ZM4.1445,-0.1598 T2.1961,1.8881 -1.4305,3.9759 -3.1086,4.0159 A3.846,3.846 0 0 1 -3.1311,-3.6761 T-1.7399,-3.6589 -1.5562,-3.3543 -2.7638,-3.0669 A3.7475,3.7475 0 0 1 4.1445,-0.1598 ZM-3.1199,-3.6761 T-2.1294,-3.6891 0.9237,-3.2346 3.878,-1.334 5.0083,1.6363 4.6151,4.8967 2.4602,7.3078 -0.6335,7.5141 -3.0753,5.551 -4.0254,2.6631 -3.0171,-0.6857 0.0229,-3.1764 1.9757,-3.7244 A3.9901,3.9901 0 0 1 2.2125,4.2522 T2.9447,3.2008 2.4788,1.1999 -0.2118,0.7472 -1.4217,2.643 -2.1294,4.0289 -3.1199,4.0159 A3.846,3.846 0 0 1 -3.1199,-3.6761 ZM2.1857,4.2529 T0.098,4.0524 -3.0003,2.7936 -4.1365,-0.2955 -2.8732,-3.7723 0.0422,-5.3513 3.3008,-4.61 5.5121,-2.3404 5.3119,1.145 3.0961,3.9683 -0.1153,4.7128 -1.7901,4.7241 A4.0384,4.0384 0 0 1 -1.5242,-3.3484 T-1.2569,-2.94 -1.4419,-1.192 -0.4594,1.2825 2.072,1.1375 2.4505,-1.6823 1.8675,-3.4735 2.0025,-3.7251 A3.9901,3.9901 0 0 1 2.1857,4.2529 ZM2.1249,2.1038 T2.0788,2.2287 2.0328,2.3535 A4.0397,4.0397 0 0 1 -5.5337,-0.4794 T-5.4865,-0.6038 -5.4392,-0.7281 A4.0384,4.0384 0 0 1 2.1249,2.1038 ZM0.033,4.5618 T-0.7051,4.9162 -1.4431,5.2705 A4.024,4.024 0 0 1 -4.9961,-1.9507 T-4.265,-2.3192 -3.5339,-2.6877 A4.0397,4.0397 0 0 1 0.033,4.5618 Z" stroke-linecap="round" fill="#1d1d1d"/></g></g><g transform="matrix(1, 0, 0, 1, 975.3538, 603.2852)" opacity="1"><g transform="scale(1)"><path d="M0,-3.4123 T1.2334,-3.387 4.4269,-3.2868 8.3877,-2.5102 11.7137,-0.8776 14.093,1.0309 15.9671,3.3954 17.2777,5.7714 17.768,6.7603 A3.6496,3.6496 0 0 1 11.19,9.924 T10.6925,8.7575 9.3784,6.4513 7.1698,4.4077 4.1223,3.4327 1.2334,3.387 0,3.4123 A3.4123,3.4123 0 0 1 0,-3.4123 ZM13.2206,4.9163 T13.3018,4.8835 13.383,4.8506 A3.6553,3.6553 0 0 1 15.9038,11.7129 T15.8206,11.7404 15.7375,11.7679 A3.6496,3.6496 0 0 1 13.2206,4.9163 ZM11.1086,7.3509 T11.3084,6.5239 12.0555,4.3131 13.6343,1.8376 16.225,0.1387 19.1354,-1.5538 22.3803,-3.2483 24.2741,-3.8577 A3.8221,3.8221 0 0 1 26.0444,3.5787 T25.0489,4.0207 22.959,5.4238 20.298,6.817 18.4548,8.2308 18.1782,9.2127 A3.6553,3.6553 0 0 1 11.1086,7.3509 Z" stroke-linecap="round" fill="#e03131"/></g></g><g transform="matrix(1, 0, 0, 1, 968.467, 567.9766)" opacity="1"><g transform="scale(1)"><path d="M-2.161,-2.7254 T-0.8045,-3.689 1.4782,-6.246 3.8501,-8.8014 6.8535,-10.5473 8.4111,-11.3312 A3.7581,3.7581 0 0 1 12.1487,-4.8101 T9.9076,-3.7906 6.9648,-1.3722 4.4733,1.0568 2.4223,2.4062 2.161,2.7254 A3.4782,3.4782 0 0 1 -2.161,-2.7254 Z" stroke-linecap="round" fill="#e03131"/></g></g><g transform="matrix(1, 0, 0, 1, 940.467, 558.0898)" opacity="1"><g transform="scale(1)"><path d="M-1.9652,-2.7544 T-1.1011,-3.3612 1.2201,-5.1606 3.632,-7.5626 6.1684,-10.1961 7.7501,-11.6203 A3.6039,3.6039 0 0 1 11.6488,-5.558 T11.1262,-5.2742 9.6096,-3.7184 7.3816,-1.3889 4.9113,0.5918 2.8201,2.1347 1.9652,2.7544 A3.3836,3.3836 0 0 1 -1.9652,-2.7544 Z" stroke-linecap="round" fill="#e03131"/></g></g><g transform="matrix(1, 0, 0, 1, 992.1233, 585.4219)" opacity="1"><g transform="scale(1)"><path d="M1.9415,2.9112 T0.8375,3.6564 -1.1133,5.6954 -2.2948,8.4 -2.6349,11.3622 -2.6299,15.4962 -2.6196,18.0787 A3.7401,3.7401 0 0 1 -10.0997,18.0773 T-10.0841,15.4757 -10.018,11.0908 -9.7196,7.7793 -8.8914,4.925 -7.3887,2.1817 -5.4389,-0.2586 -3.1765,-2.0964 -1.9415,-2.9112 A3.4992,3.4992 0 0 1 1.9415,2.9112 Z" stroke-linecap="round" fill="#e03131"/></g></g><g transform="matrix(1, 0, 0, 1, 973.7639, 568.5781)" opacity="1"><g transform="scale(1)"><path d="M0,-3.4469 T1.1127,-3.4305 3.8013,-3.4253 7.0199,-3.466 10.3522,-3.5405 13.4823,-3.6193 16.4464,-3.5423 17.97,-3.4314 A3.6877,3.6877 0 0 1 17.091,3.8914 T16.0069,3.7723 13.4823,3.6193 10.3522,3.5405 7.0199,3.466 3.8013,3.4253 1.1127,3.4305 0,3.4469 A3.4469,3.4469 0 0 1 0,-3.4469 Z" stroke-linecap="round" fill="#e03131"/></g></g><g transform="matrix(1, 0, 0, 1, 973.1272, 568.543)" opacity="1"><g transform="scale(1)"><path d="M2.5685,2.2311 T1.8419,3.1027 0.1143,5.3857 -1.826,7.9216 -3.8361,10.0774 -4.9068,11.1089 A3.6458,3.6458 0 0 1 -9.8735,5.7703 T-8.9515,4.9188 -7.0236,2.9815 -5.039,0.656 -3.3144,-1.4075 -2.5685,-2.2311 A3.4022,3.4022 0 0 1 2.5685,2.2311 Z" stroke-linecap="round" fill="#e03131"/></g></g><g transform="matrix(1, 0, 0, 1, 948.9631, 555.3281)" opacity="1"><g transform="scale(1)"><path d="M-0.3492,-3.4654 T0.5572,-3.5765 2.9808,-4.0478 5.6658,-5.3082 8.8721,-6.9007 10.9108,-7.5929 A3.7681,3.7681 0 0 1 13.9288,-0.6874 T12.2173,-0.7876 9.4871,0.4672 6.7215,2.2057 3.5475,2.9578 1.2347,3.3959 0.3492,3.4654 A3.483,3.483 0 0 1 -0.3492,-3.4654 Z" stroke-linecap="round" fill="#e03131"/></g></g><g transform="matrix(1, 0, 0, 1, 959.3186, 615.8828)" opacity="1"><g transform="scale(1)"><path d="M3.4756,-0.1926 T3.5215,0.7951 4.8748,2.029 6.1823,2.2753 A3.6824,3.6824 0 0 1 4.5985,9.4678 T3.4195,9.2316 0.8334,8.694 -1.6894,7.0718 -3.0768,3.9586 -3.412,1.1794 -3.4756,0.1926 A3.481,3.481 0 0 1 3.4756,-0.1926 ZM3.4795,2.7238 T5.1783,1.9463 9.7319,2.3456 12.5868,3.5223 A3.7449,3.7449 0 0 1 8.2917,9.6583 T7.6929,9.1479 7.1977,8.8284 7.3013,9.0193 A3.6824,3.6824 0 0 1 3.4795,2.7238 Z" stroke-linecap="round" fill="#e03131"/></g></g></svg>