<svg xmlns="http://www.w3.org/2000/svg" direction="ltr" width="166.37314059927007" height="174.72810627499337" viewBox="1174.4947694868736 474.92018779657053 166.37314059927007 174.72810627499337" stroke-linecap="round" stroke-linejoin="round" data-color-mode="light" class="tl-container tl-theme__force-sRGB tl-theme__light" style="background-color: rgb(249, 250, 251);"><defs/><g transform="matrix(1, 0, 0, 1, 1221.4343, 595.6855)" opacity="1"><g transform="scale(1)"><path d="M-3.008,0 T-2.9351,-1.8263 -2.8227,-5.3623 -2.7605,-8.7179 -2.7862,-12.7855 -2.8776,-17.5093 -2.9761,-21.6137 -3.0834,-24.8296 -3.199,-27.7902 -3.3275,-30.7582 -3.4549,-33.6601 -3.568,-36.5596 -4.6374,-39.0775 -6.8134,-41.148 -9.0499,-43.1926 -11.0197,-45.5091 -12.6993,-47.9736 -14.1932,-50.4236 -15.7044,-53.2957 -17.1175,-56.513 -18.0535,-59.4683 -18.5654,-62.2989 -18.7839,-65.4527 -18.8282,-68.6528 -18.8454,-71.6038 -18.632,-74.4916 -17.7292,-77.206 -16.1411,-79.811 -14.2094,-82.2831 -11.7,-84.4093 -8.854,-86.0941 -6.0332,-87.3431 -3.0378,-88.2537 -0.1033,-88.6737 3.0003,-88.7256 6.2112,-88.7229 9.4064,-88.7181 12.8535,-88.5386 16.0796,-87.6685 18.9712,-86.1352 21.8804,-84.3543 24.722,-82.3387 27.3725,-79.9606 29.5283,-77.5509 31.4727,-75.1629 33.2502,-72.617 34.8265,-69.8631 35.7079,-68.3751 A3.9272,3.9272 0 0 1 29.0965,-64.1348 T28.1271,-65.7029 26.3345,-68.6625 24.5451,-71.2032 22.6707,-73.4342 20.6041,-75.5294 18.0579,-77.4422 15.2646,-79.1805 12.4773,-80.4356 9.4065,-80.8508 6.2128,-80.8457 3.2989,-80.8367 0.4798,-80.8069 -2.4119,-80.2913 -5.1353,-79.1494 -7.5536,-77.5918 -9.6445,-75.355 -10.7976,-72.6112 -11.0426,-69.5425 -11.0355,-66.269 -10.8512,-63.1633 -10.271,-60.2559 -9.2182,-57.4539 -7.8519,-54.7523 -6.1198,-51.8981 -4.2097,-49.2469 -2.2373,-47.1785 0.2261,-45.1344 2.241,-42.5807 3.2414,-39.5488 3.568,-36.5596 3.4549,-33.6601 3.3275,-30.7582 3.199,-27.7902 3.0834,-24.8296 2.9761,-21.6137 2.8776,-17.5093 2.7862,-12.7855 2.7605,-8.7179 2.8227,-5.3623 2.9351,-1.8263 3.008,0 A3.008,3.008 0 0 1 -3.008,0 Z" stroke-linecap="round" fill="#1d1d1d"/></g></g><g transform="matrix(1, 0, 0, 1, 1220.3496, 595.2499)" opacity="1"><g transform="scale(1)"><path d="M0,-3.3381 T1.1994,-3.3211 4.3594,-3.308 8.0267,-3.3277 11.3146,-3.3612 14.6688,-3.4149 18.2232,-3.4791 21.7901,-3.5288 25.3525,-3.5677 28.9049,-3.5074 32.2677,-3.3738 35.4052,-3.3147 38.4667,-3.3206 41.7307,-3.3449 45.3414,-3.3717 48.9537,-3.3933 52.2693,-3.4147 55.3414,-3.4259 58.401,-3.4258 61.7888,-3.58 65.1069,-3.8778 68.0352,-4.0916 69.6736,-4.3928 69.8629,-4.6231 A3.8322,3.8322 0 0 1 73.9779,1.8428 T71.8171,2.6651 68.1652,3.5494 64.9195,3.7398 61.5584,4.0069 58.4021,4.1459 55.3414,4.146 52.2693,4.1348 48.9537,4.1134 45.3411,4.0917 41.7274,4.064 38.4461,4.0338 35.2879,3.992 31.8071,3.8685 28.544,3.679 25.3525,3.5677 21.7901,3.5288 18.2232,3.4791 14.6688,3.4149 11.3146,3.3612 8.0267,3.3277 4.3594,3.308 1.1994,3.3211 0,3.3381 A3.3381,3.3381 0 0 1 0,-3.3381 Z" stroke-linecap="round" fill="#1d1d1d"/></g></g><g transform="matrix(1, 0, 0, 1, 1256.8683, 530.0783)" opacity="1"><g transform="scale(1)"><path d="M-3.3267,-0.9857 T-3.0463,-1.9088 -1.8977,-4.6309 -0.2763,-7.7778 1.4797,-10.5614 3.4487,-13.1869 5.5651,-15.5651 7.7866,-17.6501 10.0668,-19.375 12.8423,-21.0248 15.9899,-22.5025 19.0443,-23.7158 22.1659,-24.7184 25.4711,-25.6191 28.8832,-26.4456 32.2707,-26.8992 35.5158,-26.9965 38.9546,-26.978 42.189,-26.6193 44.9043,-25.5962 47.4661,-24.1431 49.8172,-22.4033 51.7821,-20.1973 53.4973,-17.5139 54.911,-14.5335 55.7113,-11.4359 55.9601,-8.3729 55.9818,-5.4752 55.9928,-2.4929 55.6669,0.5294 54.7059,3.3623 53.4732,6.1652 52.0314,8.9022 50.3478,11.4048 48.3868,13.7693 46.1064,15.9495 43.7151,17.9874 41.347,19.9605 38.4822,22.2334 36.7576,23.5657 A3.9633,3.9633 0 0 1 32.0591,17.1817 T33.1633,16.3008 35.3196,14.4925 37.7046,12.5501 40.1401,10.5931 42.2798,8.5796 44.2743,6.1435 45.9669,3.2223 47.3524,-0.0088 48.0082,-3.1676 48.0205,-6.0734 47.985,-8.9912 47.4752,-11.8674 46.2456,-14.429 44.4692,-16.5723 42.1969,-18.2964 39.3793,-19.1801 36.2552,-19.3078 33.0636,-19.278 29.9505,-18.9485 27.0767,-18.2656 24.2294,-17.4844 21.406,-16.5782 18.4169,-15.3783 15.3489,-13.8329 12.6142,-11.9683 10.2062,-9.8276 8.1924,-7.5579 6.4582,-5.2291 4.741,-2.4474 3.5934,0.0621 3.3267,0.9857 A3.4696,3.4696 0 0 1 -3.3267,-0.9857 Z" stroke-linecap="round" fill="#1d1d1d"/></g></g><g transform="matrix(1, 0, 0, 1, 1292.4689, 591.6502)" opacity="1"><g transform="scale(1)"><path d="M-3.0954,0 T-3.0622,-1.5139 -3.0202,-5.6319 -2.9832,-9.7667 -2.9469,-12.7 -2.9869,-16.0214 -3.0818,-19.6063 -3.1683,-22.83 -3.2435,-25.8132 -3.3078,-28.6462 -3.3773,-31.8281 -3.3602,-35.429 -3.1043,-39.5649 -2.9058,-41.8744 A3.5426,3.5426 0 0 1 4.126,-41.0062 T3.8789,-38.7811 3.5248,-35.0792 3.3773,-31.8281 3.3078,-28.6462 3.2435,-25.8132 3.1683,-22.83 3.0818,-19.6063 2.9869,-16.0214 2.9469,-12.7 2.9832,-9.7667 3.0202,-5.6319 3.0622,-1.5139 3.0954,0 A3.0954,3.0954 0 0 1 -3.0954,0 Z" stroke-linecap="round" fill="#1d1d1d"/></g></g><g transform="matrix(1, 0, 0, 1, 1236.2735, 561.6315)" opacity="1"><g transform="scale(1)"><path d="M-1.5419,-1.6728 T-1.0755,-2.1006 0.2595,-3.1825 2.1787,-4.469 4.3799,-5.6643 6.596,-6.7659 8.5394,-7.6748 10.436,-8.5091 12.4615,-9.3682 14.6796,-10.224 16.9705,-11.0251 19.1502,-11.632 21.4052,-11.9793 23.6797,-12.0768 25.8218,-12.1039 27.7897,-12.1224 29.743,-12.0357 31.8122,-11.6139 33.983,-10.765 36.1367,-9.792 38.0121,-8.897 39.6761,-7.9033 41.3139,-6.6922 42.6751,-5.0832 43.3708,-3.5003 43.5104,-2.8649 A2.5982,2.5982 0 0 1 38.4426,-1.7161 T38.0205,-2.3816 36.8243,-3.5896 35.1014,-4.5896 33.224,-5.4737 31.4418,-6.2924 29.6617,-6.8476 27.7899,-7.019 25.8243,-7.0371 23.7256,-7.0543 21.7089,-7.0182 19.8244,-6.721 17.9031,-6.161 15.7568,-5.4362 13.6521,-4.6425 11.585,-3.783 9.3249,-2.7748 7.2032,-1.8256 5.2114,-0.8407 3.3421,0.2663 2.0056,1.2432 1.5419,1.6728 A2.275,2.275 0 0 1 -1.5419,-1.6728 Z" stroke-linecap="round" fill="#1d1d1d"/></g></g><g transform="matrix(1, 0, 0, 1, 1237.3788, 563.7783)" opacity="1"><g transform="scale(1)"><path d="M0.8154,-2.1353 T1.5159,-1.8558 3.2689,-1.1666 5.4522,-0.2763 7.4884,0.5577 9.3289,1.1328 11.2031,1.6362 13.0917,2.0407 14.989,2.1539 17.033,2.1353 19.0641,2.1207 20.9983,2.0546 23.0125,1.7728 25.0632,1.274 27.1235,0.7988 29.2043,0.2286 31.36,-0.5933 33.4285,-1.5108 35.1963,-2.5282 36.7261,-3.8883 37.4571,-4.6993 A2.6058,2.6058 0 0 1 41.815,-1.8409 T41.2381,-0.9994 39.7439,0.5756 37.9555,1.9014 36.1849,2.9621 34.1889,3.8593 32.1662,4.6625 30.1069,5.38 28.0094,5.9111 25.9631,6.3754 23.9428,6.8367 21.9775,7.1258 19.9975,7.2251 17.9514,7.2119 15.785,7.1918 13.7585,7.1426 11.6963,6.8313 9.5781,6.2199 7.5419,5.5947 5.556,4.8516 3.616,3.9328 1.6182,3.061 -0.1069,2.3938 -0.8154,2.1353 A2.2857,2.2857 0 0 1 0.8154,-2.1353 Z" stroke-linecap="round" fill="#1d1d1d"/></g></g><g transform="matrix(1, 0, 0, 1, 1249.1056, 557.1912)" opacity="1"><g transform="scale(1)"><path d="M2.0264,1.0199 T1.6856,1.7297 1.2258,3.4469 1.1217,5.5872 1.1367,6.7202 A2.4368,2.4368 0 0 1 -3.737,6.7195 T-3.7162,5.445 -3.5901,3.1659 -3.1194,1.2608 -2.3903,-0.3298 -2.0264,-1.0199 A2.2686,2.2686 0 0 1 2.0264,1.0199 Z" stroke-linecap="round" fill="#1d1d1d"/></g></g><g transform="matrix(1, 0, 0, 1, 1265.457, 554.6533)" opacity="1"><g transform="scale(1)"><path d="M2.1995,-0.6811 T2.4465,0.08 3.0881,1.8544 3.8083,3.9527 4.2903,5.9608 4.4505,7.6273 4.4546,8.3708 A2.4846,2.4846 0 0 1 -0.5147,8.3885 T-0.5549,7.2632 -0.8219,5.1975 -1.3823,3.2863 -1.9578,1.4983 -2.1995,0.6811 A2.3026,2.3026 0 0 1 2.1995,-0.6811 Z" stroke-linecap="round" fill="#1d1d1d"/></g></g><g transform="matrix(1, 0, 0, 1, 1219.9184, 566.523)" opacity="1"><g transform="scale(1)"><path d="M1.7882,1.5191 T1.1723,2.249 -0.035,3.9259 -1.2535,5.6707 -2.5348,7.447 -3.6418,9.5212 -4.4791,11.6799 -5.0765,13.7608 -5.3286,15.9706 -5.3762,18.2798 -5.3956,20.7178 -5.4109,23.2327 -5.409,25.5873 -5.3963,27.7668 -5.1827,29.8593 -4.7929,31.8881 -4.4957,33.8677 -4.3814,34.892 A2.5627,2.5627 0 0 1 -9.4601,35.5817 T-9.6016,34.3598 -9.9493,32.0532 -10.3037,29.8809 -10.4453,27.7706 -10.4325,25.5872 -10.4304,23.2321 -10.4446,20.7143 -10.4569,18.2531 -10.4363,16.1376 -10.2702,14.1496 -9.9183,12.2026 -9.3,10.1249 -8.4577,8.0457 -7.5314,6.1096 -6.3073,4.1961 -4.9511,2.4501 -3.7022,0.8051 -2.4336,-0.7642 -1.7882,-1.5191 A2.3463,2.3463 0 0 1 1.7882,1.5191 Z" stroke-linecap="round" fill="#1d1d1d"/></g></g><g transform="matrix(1, 0, 0, 1, 1293.7024, 564.5679)" opacity="1"><g transform="scale(1)"><path d="M1.7882,-1.5191 T2.4336,-0.7642 3.7022,0.8051 4.9511,2.4501 6.3073,4.1961 7.5314,6.1096 8.4577,8.0457 9.3,10.1249 9.9183,12.2026 10.2702,14.1496 10.4363,16.1376 10.4569,18.2531 10.4446,20.7143 10.4304,23.2321 10.4325,25.5872 10.4453,27.7706 10.3037,29.8809 9.9493,32.0532 9.6016,34.3598 9.4601,35.5817 A2.5627,2.5627 0 0 1 4.3814,34.892 T4.4957,33.8677 4.7929,31.8881 5.1827,29.8593 5.3963,27.7668 5.409,25.5873 5.4109,23.2327 5.3956,20.7178 5.3762,18.2798 5.3286,15.9706 5.0765,13.7608 4.4791,11.6799 3.6418,9.5212 2.5348,7.447 1.2535,5.6707 0.035,3.9259 -1.1723,2.249 -1.7882,1.5191 A2.3463,2.3463 0 0 1 1.7882,-1.5191 Z" stroke-linecap="round" fill="#1d1d1d"/></g></g><g transform="matrix(1, 0, 0, 1, 1242.7478, 599.1241)" opacity="1"><g transform="scale(1)"><path d="M2.2903,-0.073 T2.3008,0.7134 2.6019,2.8075 3.2947,5.1646 4.1659,7.3118 5.0259,9.372 5.7942,11.3326 6.5943,13.6142 7.017,14.8976 A2.4854,2.4854 0 0 1 2.2038,16.1393 T2.0071,15.3938 1.4771,13.7251 0.7765,11.7202 0.0092,9.6036 -0.8063,7.4268 -1.5051,5.2726 -1.9997,2.9533 -2.2507,0.8596 -2.2903,0.073 A2.2915,2.2915 0 0 1 2.2903,-0.073 Z" stroke-linecap="round" fill="#1d1d1d"/></g></g><g transform="matrix(1, 0, 0, 1, 1247.3611, 614.6483)" opacity="1"><g transform="scale(1)"><path d="M0,2.228 T-0.5608,2.2329 -2.0971,2.2704 -4.5211,2.3328 -5.9696,2.3625 A2.3625,2.3625 0 0 1 -5.9696,-2.3625 T-4.5211,-2.3328 -2.0971,-2.2704 -0.5608,-2.2329 0,-2.228 A2.228,2.228 0 0 1 0,2.228 Z" stroke-linecap="round" fill="#1d1d1d"/></g></g><g transform="matrix(1, 0, 0, 1, 1269.6266, 597.3758)" opacity="1"><g transform="scale(1)"><path d="M2.2803,-0.6978 T2.5377,0.1295 3.0855,2.0501 3.525,4.0835 3.7812,6.0536 3.9593,8.0911 4.0433,10.0416 4.0662,11.9353 4.0342,14.115 3.6367,16.2371 2.7939,18.0051 2.3065,18.8799 A2.628,2.628 0 0 1 -2.2406,16.2436 T-1.6762,15.4052 -1.1028,13.5992 -1.0835,11.6514 -1.062,9.6547 -1.1527,7.7046 -1.3131,5.7782 -1.5781,3.5657 -2.0324,1.5218 -2.2803,0.6978 A2.3847,2.3847 0 0 1 2.2803,-0.6978 ZM-0.3184,14.9574 T0.3252,14.8716 1.9912,14.7082 4.0857,14.6247 6.2837,14.6298 7.4095,14.6408 A2.6285,2.6285 0 0 1 7.4095,19.8977 T5.7319,19.9073 3.1172,19.9194 1.2822,20.044 0.3843,20.1662 A2.628,2.628 0 0 1 -0.3184,14.9574 Z" stroke-linecap="round" fill="#1d1d1d"/></g></g><g transform="matrix(1, 0, 0, 1, 1256.362, 563.8197)" opacity="1"><g transform="scale(1)"><path d="M2.2624,-0.7865 T2.5019,-0.1169 1.8001,0.4859 1.5443,1.2017 1.2344,1.9879 1.0148,1.3243 1.9289,0.6687 2.0673,0.6806 A2.5875,2.5875 0 0 1 -1.4473,4.4791 T-2.2614,3.4726 -3.1667,1.2076 -2.9021,-1.0364 -1.4195,-2.5785 0.6461,-3.1229 2.6064,-3.0005 4.5243,-1.9808 5.477,0.2489 5.0794,2.6025 3.2573,4.1346 0.8758,4.4093 -0.9575,3.202 -2.0201,1.5027 -2.2624,0.7865 A2.3952,2.3952 0 0 1 2.2624,-0.7865 Z" stroke-linecap="round" fill="#1d1d1d"/></g></g></svg>