<svg xmlns="http://www.w3.org/2000/svg" direction="ltr" width="161.42815221882847" height="191.0606044961433" viewBox="1181.2859238905858 411.9696977519283 161.42815221882847 191.0606044961433" stroke-linecap="round" stroke-linejoin="round" data-color-mode="light" class="tl-container tl-theme__force-sRGB tl-theme__light" style="background-color: rgb(249, 250, 251);"><defs/><g transform="matrix(0.866, 0.5, -0.5, 0.866, 1248.8064, 443.9697)" opacity="1"><g transform="scale(1)"><path d="M3.0102,-1.7223 T3.5153,-0.8159 4.9857,1.2443 7.0152,3.3166 9.4072,5.145 12.039,6.8116 14.6019,8.2348 17.4312,8.9868 20.5282,9.0514 23.4901,9.0101 26.0024,8.9928 27.0793,8.9958 A3.8853,3.8853 0 0 1 27.0793,16.7664 T24.9574,16.7548 21.34,16.7206 18.3559,16.6607 15.328,16.3449 12.3559,15.3457 9.4615,13.7658 6.6225,11.9743 3.9774,10.0084 1.353,7.6077 -0.9815,4.8766 -2.4846,2.6174 -3.0102,1.7223 A3.4681,3.4681 0 0 1 3.0102,-1.7223 Z" stroke-linecap="round" fill="#1d1d1d"/></g></g><g transform="matrix(0.866, 0.5, -0.5, 0.866, 1247.4144, 444.2239)" opacity="1"><g transform="scale(1)"><path d="M3.4083,0.5489 T3.2502,1.4968 2.6848,4.2189 1.7513,7.797 0.8504,10.9987 0.3485,13.8945 0.1105,16.9849 -0.03,20.3092 -0.0495,23.7291 -0.0187,26.8486 0.0223,29.8033 0.4739,33.1087 1.6321,36.6531 3.1317,39.8858 4.7127,42.677 6.4808,45.4574 8.3658,48.0476 10.2611,50.2236 11.2312,51.2692 A3.8232,3.8232 0 0 1 5.6063,56.4487 T4.4496,55.166 2.445,52.7718 0.6757,50.2812 -1.1551,47.4452 -2.9295,44.4274 -4.4518,41.5222 -5.727,38.6734 -6.8297,35.3569 -7.4293,31.6282 -7.5207,28.2207 -7.4774,25.2865 -7.4362,22.3055 -7.3423,18.8069 -7.1352,15.0926 -6.7233,11.954 -5.9241,8.9355 -4.9075,5.8007 -4.0579,2.8243 -3.5558,0.4003 -3.4083,-0.5489 A3.4523,3.4523 0 0 1 3.4083,0.5489 Z" stroke-linecap="round" fill="#1d1d1d"/></g></g><g transform="matrix(0.866, 0.5, -0.5, 0.866, 1228.2302, 494.2874)" opacity="1"><g transform="scale(1)"><path d="M-3.459,-0.2735 T-3.3857,-1.1682 -2.8855,-3.8048 -1.663,-7.2171 0.0431,-10.2537 2.0548,-12.9224 4.3906,-15.6135 6.7189,-18.3257 8.9342,-20.8871 11.0946,-23.118 14.0473,-25.3491 15.9616,-26.5871 A3.7876,3.7876 0 0 1 19.894,-20.1125 T18.5703,-19.3032 16.1207,-17.476 13.9951,-15.351 11.956,-13.0509 9.8015,-10.6597 7.7121,-8.4061 5.8372,-6.0552 4.266,-3.1361 3.5271,-0.6194 3.459,0.2735 A3.4698,3.4698 0 0 1 -3.459,-0.2735 Z" stroke-linecap="round" fill="#1d1d1d"/></g></g><g transform="matrix(0.866, 0.5, -0.5, 0.866, 1310.2382, 479.0168)" opacity="1"><g transform="scale(1)"><path d="M3.0102,1.7223 T2.4846,2.6174 0.9815,4.8766 -1.353,7.6077 -3.9774,10.0084 -6.6225,11.9743 -9.4615,13.7658 -12.3559,15.3457 -15.328,16.3449 -18.3559,16.6607 -21.34,16.7206 -24.9574,16.7548 -27.0793,16.7664 A3.8853,3.8853 0 0 1 -27.0793,8.9958 T-26.0024,8.9928 -23.4901,9.0101 -20.5282,9.0514 -17.4312,8.9868 -14.6019,8.2348 -12.039,6.8116 -9.4072,5.145 -7.0152,3.3166 -4.9857,1.2443 -3.5153,-0.8159 -3.0102,-1.7223 A3.4681,3.4681 0 0 1 3.0102,1.7223 Z" stroke-linecap="round" fill="#1d1d1d"/></g></g><g transform="matrix(0.866, 0.5, -0.5, 0.866, 1310.7141, 480.3493)" opacity="1"><g transform="scale(1)"><path d="M3.4083,-0.5489 T3.5558,0.4003 4.0579,2.8243 4.9075,5.8007 5.9241,8.9355 6.7233,11.954 7.1352,15.0926 7.3423,18.8069 7.4362,22.3055 7.4774,25.2865 7.5207,28.2207 7.4293,31.6282 6.8297,35.3569 5.727,38.6734 4.4518,41.5222 2.9295,44.4274 1.1551,47.4452 -0.6757,50.2812 -2.445,52.7718 -4.4496,55.166 -5.6063,56.4487 A3.8232,3.8232 0 0 1 -11.2312,51.2692 T-10.2611,50.2236 -8.3658,48.0476 -6.4808,45.4574 -4.7127,42.677 -3.1317,39.8858 -1.6321,36.6531 -0.4739,33.1087 -0.0223,29.8033 0.0187,26.8486 0.0495,23.7291 0.03,20.3092 -0.1105,16.9849 -0.3485,13.8945 -0.8504,10.9987 -1.7513,7.797 -2.6848,4.2189 -3.2502,1.4968 -3.4083,0.5489 A3.4523,3.4523 0 0 1 3.4083,-0.5489 Z" stroke-linecap="round" fill="#1d1d1d"/></g></g><g transform="matrix(0.866, 0.5, -0.5, 0.866, 1276.9498, 521.9951)" opacity="1"><g transform="scale(1)"><path d="M-3.459,0.2735 T-3.5271,-0.6194 -4.266,-3.1361 -5.8372,-6.0552 -7.7121,-8.4061 -9.8015,-10.6597 -11.956,-13.0509 -13.9951,-15.351 -16.1207,-17.476 -18.5703,-19.3032 -19.894,-20.1125 A3.7876,3.7876 0 0 1 -15.9616,-26.5871 T-14.0473,-25.3491 -11.0946,-23.118 -8.9342,-20.8871 -6.7189,-18.3257 -4.3906,-15.6135 -2.0548,-12.9224 -0.0431,-10.2537 1.663,-7.2171 2.8855,-3.8048 3.3857,-1.1682 3.459,-0.2735 A3.4698,3.4698 0 0 1 -3.459,0.2735 Z" stroke-linecap="round" fill="#1d1d1d"/></g></g><g transform="matrix(0.866, 0.5, -0.5, 0.866, 1273.2764, 461.6298)" opacity="1"><g transform="scale(1)"><path d="M2.6551,0 T2.6056,1.8996 2.4756,5.9183 2.3054,10.4486 2.1495,15.3187 2.0342,20.3665 1.9495,25.5741 1.8875,30.6568 1.8423,35.3865 1.8546,39.653 1.9212,43.5789 1.9794,47.4544 2.0253,51.3185 2.1066,54.8207 2.2254,57.8387 2.3934,61.8612 2.5802,66.9529 2.7191,71.8903 2.8265,76.6829 2.9304,80.9571 3.0642,84.4297 3.3245,87.3807 3.583,90.5073 3.8362,94.0017 4.1423,97.3307 4.3873,100.5757 4.5307,103.8592 4.629,106.997 4.7419,110.2379 4.8777,113.7817 5.1397,117.465 5.3075,119.3085 A3.6039,3.6039 0 0 1 -1.8676,119.9951 T-2.072,117.5097 -2.3184,113.5553 -2.4099,110.5391 -2.5557,107.2763 -2.7137,103.4623 -2.8481,99.8524 -3.0283,96.7674 -3.2074,93.7151 -3.0875,90.5286 -3.019,87.4014 -3.0642,84.4297 -2.9304,80.9571 -2.8265,76.6829 -2.7191,71.8903 -2.5802,66.9529 -2.3934,61.8612 -2.2254,57.8387 -2.1066,54.8207 -2.0253,51.3185 -1.9794,47.4544 -1.9212,43.5789 -1.8546,39.653 -1.8423,35.3865 -1.8875,30.6568 -1.9495,25.5741 -2.0342,20.3665 -2.1495,15.3187 -2.3054,10.4486 -2.4756,5.9183 -2.6056,1.8996 -2.6551,0 A2.6551,2.6551 0 0 1 2.6551,0 Z" stroke-linecap="round" fill="#1d1d1d"/></g></g><g transform="matrix(0.866, 0.5, -0.5, 0.866, 1282.5712, 466.9372)" opacity="1"><g transform="scale(1)"><path d="M2.6551,0 T2.6056,1.8996 2.4756,5.9183 2.3054,10.4486 2.1495,15.3187 2.0342,20.3665 1.9495,25.5741 1.8875,30.6568 1.8423,35.3865 1.8546,39.653 1.9212,43.5789 1.9794,47.4544 2.0253,51.3185 2.1066,54.8207 2.2254,57.8387 2.3934,61.8612 2.5802,66.9529 2.7191,71.8903 2.8265,76.6829 2.9304,80.9571 3.0642,84.4297 3.019,87.4014 3.0875,90.5286 3.2074,93.7151 3.0283,96.7674 2.8481,99.8524 2.7137,103.4623 2.5557,107.2763 2.4099,110.5391 2.3184,113.5553 2.072,117.5097 1.8676,119.9951 A3.6039,3.6039 0 0 1 -5.3075,119.3085 T-5.1397,117.465 -4.8777,113.7817 -4.7419,110.2379 -4.629,106.997 -4.5307,103.8592 -4.3873,100.5757 -4.1423,97.3307 -3.8362,94.0017 -3.583,90.5073 -3.3245,87.3807 -3.0642,84.4297 -2.9304,80.9571 -2.8265,76.6829 -2.7191,71.8903 -2.5802,66.9529 -2.3934,61.8612 -2.2254,57.8387 -2.1066,54.8207 -2.0253,51.3185 -1.9794,47.4544 -1.9212,43.5789 -1.8546,39.653 -1.8423,35.3865 -1.8875,30.6568 -1.9495,25.5741 -2.0342,20.3665 -2.1495,15.3187 -2.3054,10.4486 -2.4756,5.9183 -2.6056,1.8996 -2.6551,0 A2.6551,2.6551 0 0 1 2.6551,0 Z" stroke-linecap="round" fill="#1d1d1d"/></g></g><g transform="matrix(0.866, 0.5, -0.5, 0.866, 1283.1817, 464.8125)" opacity="1"><g transform="scale(1)"><path d="M0,3.4088 T-1.0916,3.432 -3.64,3.5057 -6.5547,3.5993 -8.8762,3.8288 -9.7398,4.015 A3.6666,3.6666 0 0 1 -11.1824,-3.1748 T-9.5975,-3.4087 -6.5547,-3.5993 -3.64,-3.5057 -1.0916,-3.432 0,-3.4088 A3.4088,3.4088 0 0 1 0,3.4088 Z" stroke-linecap="round" fill="#1d1d1d"/></g></g><g transform="matrix(0.866, 0.5, -0.5, 0.866, 1213.2859, 566.0055)" opacity="1"><g transform="scale(1)"><path d="M0,-3.4301 T0.926,-3.4525 3.2517,-3.5297 6.1308,-3.6327 8.8299,-3.6975 10.0496,-3.7139 A3.7139,3.7139 0 0 1 10.0496,3.7139 T8.8299,3.6975 6.1308,3.6327 3.2517,3.5297 0.926,3.4525 0,3.4301 A3.4301,3.4301 0 0 1 0,-3.4301 Z" stroke-linecap="round" fill="#1d1d1d"/></g></g></svg>