<svg xmlns="http://www.w3.org/2000/svg" direction="ltr" width="143.41491845353187" height="182.82487848343442" viewBox="943.1098563557497 60.32209291047863 143.41491845353187 182.82487848343442" stroke-linecap="round" stroke-linejoin="round" data-color-mode="light" class="tl-container tl-theme__force-sRGB tl-theme__light" style="background-color: rgb(249, 250, 251);"><defs/><g transform="matrix(1, 0, 0, 1, 1026.4515, 92.5721)" opacity="1"><g transform="scale(1)"><path d="M-0.2693,3.4627 T-1.3833,3.3937 -3.9411,3.3359 -7.1967,3.3767 -10.8712,3.4097 -14.6369,3.4145 -18.3607,3.4336 -21.8136,3.4675 -24.8937,3.809 -27.7449,4.703 -30.6488,6.1002 -33.4846,8.0826 -35.961,10.4767 -38.0322,13.0021 -39.2962,15.6758 -38.7442,18.1539 -36.4481,20.3106 -33.7359,22.1902 -31.0189,23.6681 -28.0017,25.0559 -25.0878,26.3115 -22.2288,27.1816 -19.2948,27.6966 -16.4368,27.9636 -13.4307,28.1676 -10.4955,28.3048 -7.4322,28.3307 -4.2197,28.3324 -1.0543,28.108 2.1712,27.4015 5.2584,26.4457 8.3329,25.4147 11.1694,24.1535 13.4289,22.4385 15.3731,20.311 17.1014,17.8398 18.021,14.9441 16.9072,12.5267 14.1357,10.657 11.0407,8.8607 8.1133,7.5757 5.3329,6.8276 1.6966,6.3423 -0.534,6.125 A3.86,3.86 0 0 1 -0.1598,-1.5858 T1.6886,-1.4771 5.1308,-1.1133 8.2238,-0.5178 11.1706,0.3541 13.9729,1.5205 16.8632,3.0983 20,5.1202 22.8016,7.3009 24.7712,9.5993 25.7926,12.28 26.0134,15.1988 25.6204,18.0168 24.454,20.7789 22.7866,23.3878 20.995,25.7181 18.9686,27.9058 16.6485,29.8878 14.0665,31.4085 11.3828,32.5181 8.591,33.4783 5.6656,34.4321 2.3525,35.3474 -1.0866,35.9273 -4.2223,36.0665 -7.4599,36.0614 -10.643,36.0454 -13.8533,35.9339 -17.1423,35.7604 -20.4161,35.4714 -23.7069,34.9273 -26.7184,34.1484 -29.5087,33.0622 -32.5438,31.6729 -35.7908,30.0961 -38.6429,28.436 -41.0902,26.7052 -43.5173,24.6931 -45.7867,22.3713 -47.1204,19.4966 -47.37,16.4045 -46.7791,13.3475 -45.5574,10.4581 -43.7992,7.8932 -41.743,5.4915 -39.5769,3.349 -36.9791,1.1627 -34.1778,-0.7067 -31.3824,-2.015 -28.2957,-3.065 -25.0369,-3.762 -21.8142,-3.9675 -18.3607,-3.9336 -14.6368,-3.9145 -10.8707,-3.9095 -7.1792,-3.873 -3.6899,-3.7584 -0.8799,-3.5697 0.2693,-3.4627 A3.4732,3.4732 0 0 1 -0.2693,3.4627 Z" stroke-linecap="round" fill="#1d1d1d"/></g></g><g transform="matrix(1, 0, 0, 1, 981.8191, 111.1238)" opacity="1"><g transform="scale(1)"><path d="M3.296,0.5136 T3.1427,1.494 2.6908,3.9549 1.9762,7.2423 1.1184,10.5887 0.2703,13.6705 -0.5291,16.9486 -1.2909,20.3734 -1.9262,23.5109 -2.3923,26.4733 -2.7204,29.5284 -2.9718,32.636 -3.131,35.6546 -3.1864,38.7985 -3.2314,42.5178 -3.3201,47.0875 -3.4023,51.1561 -3.3483,54.3381 -3.0532,57.8105 -2.4533,61.5686 -1.582,65.6193 -0.5117,69.8188 0.6572,73.6386 1.8266,76.9088 2.9665,79.8297 4.5241,83.2668 6.3961,86.9718 8.157,89.8916 9.5182,91.7536 9.9948,92.3445 A3.0521,3.0521 0 0 1 5.1025,95.9951 T4.6717,95.3699 3.2346,92.8586 1.5097,89.2295 -0.0813,85.1929 -1.4578,81.4507 -2.4971,78.4128 -3.6326,75.0465 -4.9826,71.1675 -6.4631,66.9237 -7.8163,62.6964 -8.8915,58.5786 -9.5889,54.6984 -9.9734,49.8711 -10.1447,44.6852 -10.1876,40.5011 -10.1677,36.966 -10.0468,33.7115 -9.8041,30.4606 -9.469,27.181 -9.0225,23.807 -8.4052,20.5463 -7.6714,17.1472 -6.8617,13.577 -5.9759,10.2267 -4.9977,6.7682 -4.0387,3.162 -3.4482,0.4668 -3.296,-0.5136 A3.3358,3.3358 0 0 1 3.296,0.5136 Z" stroke-linecap="round" fill="#1d1d1d"/></g></g><g transform="matrix(1, 0, 0, 1, 1050.9043, 109.0582)" opacity="1"><g transform="scale(1)"><path d="M3.4206,0 T3.4004,1.1742 3.4128,3.8995 3.6618,6.8584 4.1803,9.7315 4.7526,12.6257 5.2479,15.6809 5.7324,18.9226 6.1943,22.2075 6.5643,25.3484 6.8688,28.3626 7.1301,31.7967 7.3039,35.4391 7.3567,38.9825 7.3566,42.6149 7.3419,46.4987 7.3243,50.5371 7.3248,54.0906 7.2529,57.3376 7.0024,60.496 6.5468,63.7733 6.0488,67.1754 5.5961,70.3997 5.0795,73.8013 4.5044,77.138 3.8044,80.1007 2.8956,82.8933 1.97,85.8095 0.9701,88.8103 -0.5202,91.8761 -2.0969,94.7666 -3.1197,96.7619 -3.4754,97.4534 A3.9527,3.9527 0 0 1 -10.4251,93.6853 T-9.2261,91.5006 -7.2405,88.08 -6.021,85.4167 -5.1586,82.6515 -4.2024,79.9213 -3.281,77.0795 -2.6305,74.1246 -2.1112,71.1804 -1.6634,68.2874 -1.1937,64.9775 -0.7029,61.615 -0.2968,58.3896 -0.0868,55.1962 -0.0794,51.8452 -0.0934,47.8796 -0.1142,43.8601 -0.1273,40.2326 -0.1573,36.8386 -0.2845,33.7147 -0.4523,30.4785 -0.6667,27.2302 -0.9759,24.2235 -1.3455,21.2393 -1.7241,17.9852 -2.1789,14.3224 -2.7093,11.0138 -3.159,7.59 -3.3718,3.9988 -3.4004,1.1742 -3.4206,0 A3.4206,3.4206 0 0 1 3.4206,0 Z" stroke-linecap="round" fill="#1d1d1d"/></g></g><g transform="matrix(1, 0, 0, 1, 980.3371, 110.3828)" opacity="1"><g transform="scale(1)"><path d="M3.5609,0.4858 T3.3812,1.8134 2.9325,4.6102 2.3494,7.4403 2.0582,10.4182 0.6196,11.398 0.5155,11.3435 3.2492,12.7116 5.8507,14.2193 8.5012,15.5514 11.2952,16.5431 14.2373,17.2381 17.5907,17.807 20.9664,18.4007 24.3121,18.9875 27.4524,19.4018 30.2369,19.7158 33.1478,19.9905 36.139,20.0715 39.1439,20.0296 42.1647,20.0339 45.1408,20.0357 48.0897,19.954 51.2518,19.5809 54.4651,18.9723 57.3901,18.3118 60.1701,17.4943 62.6624,16.0409 64.8648,14.056 66.8186,11.9497 68.6718,9.5025 69.5767,6.6335 69.5029,3.6612 67.5522,1.2659 65.6015,0.3213 A4.0072,4.0072 0 0 1 69.1949,-6.8423 T70.4724,-6.2249 73.1994,-5.0129 75.8141,-2.883 77.2774,0.0294 77.5737,2.8067 77.5707,5.7597 77.38,8.8523 76.4794,11.8744 74.9277,14.5212 72.9883,17.0379 70.8504,19.4743 68.7132,21.4761 66.477,23.2185 64.0273,24.5844 61.0523,25.585 57.8658,26.413 54.6859,27.1182 51.5509,27.6903 48.6053,28.023 45.5316,28.122 42.5243,28.1242 39.586,28.1278 36.4846,28.1286 33.4455,28.0077 30.4641,27.7655 27.448,27.507 24.321,27.1308 21.183,26.5732 18.2841,26.0187 15.2634,25.5298 12.0445,24.9166 8.9267,24.118 5.9907,23.1471 3.3162,21.8509 0.744,20.3138 -1.8488,18.8215 -4.3747,16.8384 -5.6013,13.6581 -5.4584,10.0726 -5.0558,6.9062 -4.3699,3.8524 -3.7519,0.9035 -3.5609,-0.4858 A3.5939,3.5939 0 0 1 3.5609,0.4858 Z" stroke-linecap="round" fill="#1d1d1d"/></g></g><g transform="matrix(1, 0, 0, 1, 988.6109, 133.6339)" opacity="1"><g transform="scale(1)"><path d="M2.3376,0.0741 T2.3109,0.7215 2.1603,2.5857 1.8204,4.9578 1.4632,7.2341 1.1496,9.4575 0.8352,11.5926 0.4895,13.8098 0.2024,15.9897 0.1257,18.0064 0.1419,20.0242 0.158,22.0494 0.1664,24.0619 0.1694,26.0802 0.256,28.0981 0.4992,30.1499 0.7994,32.303 1.0962,34.3833 1.4207,36.382 1.7734,38.4929 2.0821,40.5767 2.3644,42.5629 2.6648,44.5355 3.0295,46.4878 3.3982,48.5313 3.8533,50.464 4.3334,52.2731 4.8197,54.2493 5.3038,56.0911 5.4748,56.8865 A2.6571,2.6571 0 0 1 0.2848,58.0283 T-0.0345,57.0496 -0.562,54.9455 -1.0631,52.7333 -1.6176,50.5438 -2.0438,48.171 -2.3948,45.848 -2.7381,43.7622 -3.0523,41.6667 -3.3311,39.6663 -3.6186,37.7746 -3.9783,35.6002 -4.3076,33.3779 -4.5979,31.3561 -4.9122,29.1174 -5.0705,26.902 -5.068,24.8586 -5.0624,22.8166 -5.049,20.7882 -5.0303,18.7194 -5.0008,16.7213 -4.8107,14.7725 -4.4434,12.6395 -4.0579,10.3661 -3.6808,8.2918 -3.304,6.2559 -2.9077,4.2272 -2.5329,2.2539 -2.3519,0.5733 -2.3376,-0.0741 A2.3387,2.3387 0 0 1 2.3376,0.0741 Z" stroke-linecap="round" fill="#1d1d1d"/></g></g><g transform="matrix(1, 0, 0, 1, 1002.2598, 135.7109)" opacity="1"><g transform="scale(1)"><path d="M2.2725,0 T2.2683,0.6749 2.2743,2.3529 2.3058,4.4978 2.344,6.7555 2.3724,9.0907 2.3895,11.6348 2.4038,14.1415 2.4225,16.342 2.4403,18.4178 2.5536,20.5542 2.822,22.6972 3.1269,24.7598 3.2909,26.8318 3.4088,28.9054 3.5458,30.8703 3.5929,33.0191 3.6585,35.3802 3.7811,37.6921 3.8547,39.7623 3.8695,41.7208 3.9288,43.7923 4.0746,45.7763 4.2988,47.7738 4.446,49.8652 4.5818,51.9781 4.8366,54.0398 5.0866,55.8342 5.2034,56.6501 A2.6352,2.6352 0 0 1 -0.0435,57.1477 T-0.1323,56.4996 -0.2828,54.8313 -0.5656,52.8871 -0.7805,50.9369 -0.8471,48.9794 -0.9792,47.023 -1.1485,44.8481 -1.2551,42.7503 -1.2559,40.6857 -1.3122,38.4107 -1.4434,35.9891 -1.5244,33.6072 -1.5668,31.3058 -1.691,29.0188 -1.7742,26.949 -1.8846,24.9607 -2.1387,22.8647 -2.3649,20.6333 -2.4403,18.4178 -2.4225,16.342 -2.4038,14.1415 -2.3895,11.6348 -2.3724,9.0907 -2.344,6.7555 -2.3058,4.4978 -2.2743,2.3529 -2.2683,0.6749 -2.2725,0 A2.2725,2.2725 0 0 1 2.2725,0 Z" stroke-linecap="round" fill="#1d1d1d"/></g></g><g transform="matrix(1, 0, 0, 1, 1016.8301, 140.56)" opacity="1"><g transform="scale(1)"><path d="M2.2594,0.1382 T2.1872,0.9943 2.0779,3.0256 2.0512,5.314 2.0889,7.5833 2.139,9.9226 2.1805,12.1393 2.2137,14.2197 2.2347,16.2648 2.2516,18.3432 2.2699,20.5533 2.2781,22.7447 2.2763,24.9593 2.28,27.2828 2.2908,29.6164 2.3003,31.9039 2.3109,33.9877 2.3203,36.0183 2.3271,38.1208 2.334,40.0945 2.3359,41.9757 2.337,43.9237 2.349,45.9726 2.3576,48.4105 2.3571,49.8087 A2.587,2.587 0 0 1 -2.817,49.8087 T-2.8176,48.4105 -2.809,45.9726 -2.7969,43.9237 -2.7958,41.9757 -2.794,40.0945 -2.7871,38.1208 -2.7803,36.0183 -2.7709,33.9877 -2.7603,31.9039 -2.7508,29.6164 -2.74,27.2828 -2.7362,24.9593 -2.738,22.7447 -2.7299,20.5533 -2.7115,18.3432 -2.6946,16.2648 -2.6736,14.2197 -2.6404,12.1391 -2.5984,9.9208 -2.5424,7.5621 -2.4682,5.2334 -2.3757,2.8286 -2.2921,0.7203 -2.2594,-0.1382 A2.2637,2.2637 0 0 1 2.2594,0.1382 Z" stroke-linecap="round" fill="#1d1d1d"/></g></g><g transform="matrix(1, 0, 0, 1, 1030.5788, 139.3814)" opacity="1"><g transform="scale(1)"><path d="M2.3457,0 T2.342,0.6042 2.3547,2.2361 2.3963,4.3019 2.4414,6.3956 2.5779,8.4758 2.9556,10.6696 3.3655,12.9991 3.5415,15.1665 3.5718,17.1447 3.7013,19.2885 3.8477,21.6404 3.8694,23.9823 3.8779,26.1598 3.8873,28.1121 3.8945,30.1059 3.9028,32.1548 3.9071,34.1385 3.9093,36.2442 3.9113,38.3333 3.9145,40.2641 3.8742,42.3497 3.6212,44.6022 3.2171,46.6428 2.7497,48.5839 2.2053,50.7382 1.7436,52.8984 1.3909,54.8141 1.2282,55.7007 A2.6375,2.6375 0 0 1 -3.9682,54.7937 T-3.7205,53.538 -3.2812,51.279 -2.8357,49.1998 -2.333,47.2099 -1.8259,45.2431 -1.4351,43.1918 -1.2975,41.2112 -1.2922,39.2556 -1.2898,37.2049 -1.287,35.1456 -1.2848,33.0174 -1.2779,30.9263 -1.2703,29.034 -1.262,27.0734 -1.2537,25.0442 -1.2555,22.8729 -1.349,20.5876 -1.4776,18.5136 -1.5244,16.6034 -1.6242,14.5246 -1.875,12.404 -2.1818,10.4438 -2.3958,8.4713 -2.4414,6.3956 -2.3963,4.3019 -2.3547,2.2361 -2.342,0.6042 -2.3457,0 A2.3457,2.3457 0 0 1 2.3457,0 Z" stroke-linecap="round" fill="#1d1d1d"/></g></g><g transform="matrix(1, 0, 0, 1, 1043.1142, 134.6321)" opacity="1"><g transform="scale(1)"><path d="M2.3084,0 T2.302,0.6749 2.3043,2.3128 2.3204,4.2289 2.3453,6.2254 2.5007,8.4645 2.7974,10.7326 3.0701,12.7666 3.3297,14.7259 3.5363,16.6978 3.7007,18.7004 3.9318,20.9633 4.095,23.2822 4.1393,25.5081 4.1479,27.6579 4.1486,29.9051 4.154,32.1991 4.1649,34.3863 4.1804,36.5297 4.1942,38.5248 4.203,40.5341 4.1172,42.6194 3.8625,44.6394 3.5078,46.5213 3.1793,48.3871 2.7858,50.4865 2.292,52.5636 1.9062,54.5649 1.6765,56.7197 1.5619,59.4368 1.5304,61.0787 A2.5904,2.5904 0 0 1 -3.6504,61.0765 T-3.6788,59.4214 -3.6874,56.7709 -3.5134,54.8295 -3.1103,52.8297 -2.6674,50.7977 -2.2584,48.7704 -1.8615,46.653 -1.4534,44.5613 -1.1071,42.5489 -0.9831,40.5341 -0.9742,38.5248 -0.9604,36.5297 -0.9449,34.3863 -0.9341,32.1992 -0.9289,29.9057 -0.9291,27.6617 -0.9317,25.5522 -0.9754,23.3371 -1.1318,21.1264 -1.3416,19.091 -1.4834,17.0853 -1.7104,14.8001 -1.9293,12.4008 -2.0964,10.1872 -2.2943,8.2132 -2.3453,6.2254 -2.3204,4.2289 -2.3043,2.3128 -2.302,0.6749 -2.3084,0 A2.3084,2.3084 0 0 1 2.3084,0 Z" stroke-linecap="round" fill="#1d1d1d"/></g></g><g transform="matrix(1, 0, 0, 1, 994.6425, 97.521)" opacity="1"><g transform="scale(1)"><path d="M2.3464,0 T2.3405,0.6384 2.3475,2.532 2.3822,4.862 2.4257,6.984 2.4648,9.0354 2.4998,10.9741 2.5332,12.8912 2.5523,15.3216 2.5555,16.7692 A2.5555,2.5555 0 0 1 -2.5555,16.7692 T-2.5523,15.3216 -2.5332,12.8912 -2.4998,10.9741 -2.4648,9.0354 -2.4257,6.984 -2.3822,4.862 -2.3475,2.532 -2.3405,0.6384 -2.3464,0 A2.3464,2.3464 0 0 1 2.3464,0 Z" stroke-linecap="round" fill="#1d1d1d"/></g></g><g transform="matrix(1, 0, 0, 1, 1005.9532, 96.8069)" opacity="1"><g transform="scale(1)"><path d="M2.3173,0 T2.3163,0.5836 2.3341,2.2255 2.3756,4.3133 2.4161,6.2771 2.3549,8.3524 2.2304,10.6782 2.1059,12.8308 1.9785,14.9307 1.927,17.1599 1.9329,19.318 1.9412,21.6941 1.9406,23.0092 A2.5406,2.5406 0 0 1 -3.1406,23.0091 T-3.1412,21.6936 -3.131,19.3097 -3.1041,17.1106 -3.0259,14.826 -2.8585,12.7171 -2.7049,10.6417 -2.5453,8.3664 -2.4161,6.2771 -2.3756,4.3133 -2.3341,2.2255 -2.3163,0.5836 -2.3173,0 A2.3173,2.3173 0 0 1 2.3173,0 Z" stroke-linecap="round" fill="#1d1d1d"/></g></g><g transform="matrix(1, 0, 0, 1, 1020.4468, 96.7647)" opacity="1"><g transform="scale(1)"><path d="M2.3431,0 T2.3376,0.6338 2.347,2.4375 2.3837,4.6602 2.4269,6.7495 2.4678,8.7835 2.5052,10.8626 2.5354,12.9524 2.5594,15.0303 2.5788,17.1182 2.591,19.1222 2.6026,21.134 2.6036,23.0293 2.5973,23.8988 A2.5973,2.5973 0 0 1 -2.5973,23.8988 T-2.6036,23.0293 -2.6026,21.134 -2.591,19.1222 -2.5788,17.1182 -2.5594,15.0303 -2.5354,12.9524 -2.5052,10.8626 -2.4678,8.7835 -2.4269,6.7495 -2.3837,4.6602 -2.347,2.4375 -2.3376,0.6338 -2.3431,0 A2.3431,2.3431 0 0 1 2.3431,0 Z" stroke-linecap="round" fill="#1d1d1d"/></g></g><g transform="matrix(1, 0, 0, 1, 1031.3006, 97.3905)" opacity="1"><g transform="scale(1)"><path d="M2.3243,0 T2.3189,0.6475 2.3318,2.3875 2.3726,4.6586 2.4132,6.9582 2.4464,9.0241 2.4739,10.9637 2.4996,13.0235 2.5241,15.0964 2.5439,17.1347 2.5595,19.252 2.5615,21.5736 2.5568,22.808 A2.5568,2.5568 0 0 1 -2.5568,22.808 T-2.5615,21.5736 -2.5595,19.252 -2.5439,17.1347 -2.5241,15.0964 -2.4996,13.0235 -2.4739,10.9637 -2.4464,9.0241 -2.4132,6.9582 -2.3726,4.6586 -2.3318,2.3875 -2.3189,0.6475 -2.3243,0 A2.3243,2.3243 0 0 1 2.3243,0 Z" stroke-linecap="round" fill="#1d1d1d"/></g></g><g transform="matrix(1, 0, 0, 1, 1016.0469, 192.7252)" opacity="1"><g transform="scale(1)"><path d="M-2.0787,0 T-2.0395,-1.1199 -2.0002,-2.2399 A2.0002,2.0002 0 0 1 2.0002,-2.2399 T2.0395,-1.1199 2.0787,0 A2.0787,2.0787 0 0 1 -2.0787,0 Z" stroke-linecap="round" fill="#1d1d1d"/></g></g><g transform="matrix(1, 0, 0, 1, 988.9794, 206.7067)" opacity="1"><g transform="scale(1)"><path d="M0.0533,-2.3228 T0.9828,-2.3091 3.1673,-2.0275 5.3542,-1.4188 7.329,-0.7287 9.4368,-0.0828 11.6117,0.4598 13.7725,0.9209 15.8856,1.368 18.0693,1.7176 20.1804,1.8448 22.2215,1.8554 24.2767,1.8549 26.253,1.8493 28.2512,1.8415 30.3382,1.8335 32.3584,1.8293 34.2658,1.83 36.2667,1.8264 38.295,1.8186 40.25,1.799 42.3166,1.636 44.5341,1.2749 46.7106,0.8349 48.6856,0.3389 50.5844,-0.2594 52.4899,-1.0841 53.9224,-1.9161 54.4201,-2.252 A2.6142,2.6142 0 0 1 57.3586,2.0726 T56.3242,2.7484 54.2389,3.8972 52.2678,4.6898 50.4358,5.2713 48.3458,5.8224 46.0157,6.329 43.6957,6.7395 41.5261,7.0013 39.4025,7.0662 37.3377,7.0578 35.3545,7.0515 33.3204,7.0508 31.3569,7.0494 29.4409,7.0432 27.4744,7.0359 25.3714,7.0289 23.2474,7.0246 21.2384,7.0187 19.2811,6.9551 17.2929,6.7598 15.3509,6.4129 13.471,5.9844 11.5363,5.5421 9.2827,4.9808 6.916,4.252 4.9174,3.535 2.8475,2.7934 0.8056,2.3502 -0.0533,2.3228 A2.3234,2.3234 0 0 1 0.0533,-2.3228 Z" stroke-linecap="round" fill="#1d1d1d"/></g></g><g transform="matrix(1, 0, 0, 1, 985.8365, 195.3113)" opacity="1"><g transform="scale(1)"><path d="M0.302,-2.3497 T1.196,-2.2392 3.0399,-1.9143 5.1511,-1.3488 7.3283,-0.7449 9.3522,-0.1806 11.3227,0.4134 13.2919,1.0002 15.2741,1.5696 17.2967,2.0607 19.3131,2.4267 21.2246,2.6655 23.174,2.845 25.1649,3.0053 27.2897,3.2505 29.3857,3.4533 31.3973,3.5537 33.4753,3.6173 35.592,3.6173 37.6314,3.615 39.6687,3.613 41.6851,3.4803 43.6277,2.9888 45.5917,2.3398 47.4115,1.567 49.3642,0.6253 51.296,-0.2095 53.1483,-1.0194 55.0397,-1.9537 56.5194,-3.6489 57.106,-4.8439 A2.6352,2.6352 0 0 1 62.1442,-3.2969 T61.7118,-1.9015 60.7148,0.3263 59.0875,1.8341 57.0518,3.0374 55.1703,3.9573 53.3355,4.7447 51.5212,5.5133 49.7702,6.2889 47.8371,7.0891 45.8938,7.813 44.0895,8.429 42.1448,8.8139 40.1986,8.9086 38.1623,8.9067 36.128,8.9044 34.1807,8.9018 32.1439,8.8835 30.046,8.7908 27.9928,8.6155 25.9404,8.3759 23.8909,8.1608 21.9441,8.0214 19.9095,7.8165 17.8149,7.5075 15.8192,7.0873 13.7295,6.5038 11.6575,5.8598 9.7954,5.2505 7.9754,4.6389 6.1482,4.0639 4.3008,3.5019 2.3883,2.8891 0.548,2.4634 -0.302,2.3497 A2.3691,2.3691 0 0 1 0.302,-2.3497 Z" stroke-linecap="round" fill="#1d1d1d"/></g></g><g transform="matrix(1, 0, 0, 1, 982.1658, 196.7824)" opacity="1"><g transform="scale(1)"><path d="M2.0023,-1.2105 T2.4151,-0.5467 3.3762,0.9848 4.2993,2.7148 5.161,4.5156 6.4221,6.7856 7.1963,8.117 A2.5264,2.5264 0 0 1 2.8443,10.6844 T2.0773,9.3416 0.8593,7.0559 0.0517,5.1608 -0.7728,3.3584 -1.6215,1.8594 -2.0023,1.2105 A2.3398,2.3398 0 0 1 2.0023,-1.2105 Z" stroke-linecap="round" fill="#1d1d1d"/></g></g></svg>