<svg xmlns="http://www.w3.org/2000/svg" direction="ltr" width="241.9659423828125" height="220.3408446061659" viewBox="420.00390625 268.0321488613617 241.9659423828125 220.3408446061659" stroke-linecap="round" stroke-linejoin="round" data-color-mode="light" class="tl-container tl-theme__force-sRGB tl-theme__light" style="background-color: rgb(249, 250, 251);"><defs/><g transform="matrix(1, 0, 0, 1, 467.2969, 377.4492)" opacity="1"><g transform="scale(1)"><path d="M0.7976,-3.2958 T1.8692,-3.0238 4.8054,-2.098 8.1346,-0.829 11.1936,0.4496 14.3964,1.7854 17.3397,2.9702 20.1007,4.1078 23.2997,5.2065 26.4954,6.0333 29.5743,6.6516 32.8118,7.1609 36.0007,7.59 39.0786,7.895 41.9537,8.016 44.8196,8.0091 47.808,7.99 50.9329,7.9697 54.0801,7.9587 57.3896,7.959 60.7592,7.9703 64.267,7.9959 68.048,8.0257 71.5164,8.0396 74.9044,8.0483 78.4023,7.9745 81.7585,7.6253 85.032,7.1537 88.1047,6.727 91.2124,6.1466 94.5356,5.3261 97.7572,4.5392 100.7041,3.8245 103.535,3.0722 106.4458,2.384 109.3179,1.7595 112.513,1.0389 115.9802,0.2391 119.1072,-0.5536 122.1592,-1.4354 125.4963,-2.5118 128.9016,-3.6248 132.3376,-4.6335 135.5477,-5.5786 138.5965,-6.4802 141.7336,-7.6842 143.2532,-8.4256 A3.8274,3.8274 0 0 1 148.1213,-2.5181 T146.0247,-1.3451 142.3369,0.3285 139.0453,1.306 135.6176,2.3006 132.2524,3.3241 129.2815,4.2668 126.6111,5.1674 123.5105,6.1207 120.0358,7.0904 116.8026,7.9431 113.8001,8.6493 110.868,9.3007 107.7627,10.0108 104.5038,10.8114 101.309,11.5899 98.0413,12.3136 94.5039,13.1284 91.2068,13.8308 88.1264,14.2974 85.0523,14.7204 81.5417,15.2033 77.4379,15.5411 73.7106,15.5981 70.3537,15.6062 66.795,15.6246 63.0678,15.6544 59.6827,15.6771 56.4515,15.6851 53.3185,15.6815 50.3241,15.6678 47.1636,15.6468 44.0369,15.6246 41.039,15.5762 38.1459,15.3923 34.9819,15.0437 31.6288,14.5972 28.26,14.0437 24.9609,13.3656 21.958,12.5298 18.8565,11.3912 15.7417,10.0532 12.6983,8.7011 9.4658,7.2614 6.0162,5.6917 2.808,4.3336 0.2784,3.5436 -0.7976,3.2958 A3.3909,3.3909 0 0 1 0.7976,-3.2958 Z" stroke-linecap="round" fill="#1d1d1d"/></g></g><g transform="matrix(1, 0, 0, 1, 468.5703, 358.4648)" opacity="1"><g transform="scale(1)"><path d="M3.4359,0.8263 T3.1111,2.2045 2.3117,4.9952 1.2109,7.7243 -0.0571,10.5946 -1.129,13.5061 -2.0125,16.9885 -2.4659,19.113 A3.8066,3.8066 0 0 1 -9.9552,17.7446 T-9.4703,15.5817 -8.485,11.9075 -7.3926,9.0276 -6.0677,6.1736 -4.6902,3.1708 -3.7407,0.4135 -3.4359,-0.8263 A3.5339,3.5339 0 0 1 3.4359,0.8263 Z" stroke-linecap="round" fill="#1d1d1d"/></g></g><g transform="matrix(1, 0, 0, 1, 604.0313, 352.125)" opacity="1"><g transform="scale(1)"><path d="M3.305,-1.3232 T3.6415,-0.5136 4.5997,1.7234 5.7745,4.5519 6.8954,7.4717 8.0899,10.4801 9.1945,13.3141 10.2853,16.8755 10.8981,19.0925 A3.8219,3.8219 0 0 1 3.4631,20.8668 T3.0427,19.3115 2.1286,16.2729 1.1004,13.4602 0.05,10.6479 -0.9423,7.7335 -1.9743,4.8117 -2.9175,2.3221 -3.305,1.3232 A3.56,3.56 0 0 1 3.305,-1.3232 Z" stroke-linecap="round" fill="#1d1d1d"/></g></g><g transform="matrix(1, 0, 0, 1, 468.5469, 354.4336)" opacity="1"><g transform="scale(1)"><path d="M0,-3.4814 T0.8915,-3.4786 3.6156,-3.4682 6.9429,-3.2071 10.118,-2.6486 13.4179,-2.0167 16.7804,-1.4051 20.1438,-0.9392 23.6225,-0.5154 27.1076,-0.0877 30.2404,0.2746 33.328,0.6779 36.7407,1.1319 40.2052,1.5535 43.5703,1.9851 47.0092,2.3504 50.1287,2.4906 53.315,2.5038 56.6767,2.4994 59.7137,2.484 62.7987,2.4593 66.0271,2.4368 69.2282,2.4312 72.2694,2.4408 75.2117,2.4551 78.3061,2.4438 81.7045,2.2303 85.453,1.7321 89.2946,1.1137 92.7025,0.5921 96.3382,-0.0236 100.1243,-0.7496 103.5947,-1.4299 106.7946,-2.158 109.7637,-3.0491 112.7125,-4.0235 115.3906,-5.0117 118.1842,-5.9991 121.1213,-6.9152 124.0924,-7.9017 127.0253,-8.9364 129.4603,-9.9251 130.4727,-10.3969 A3.9328,3.9328 0 0 1 133.8288,-3.2833 T132.2469,-2.4952 129.3176,-1.3212 126.5492,-0.4677 123.8019,0.4619 121.0428,1.2232 118.2492,2.0363 115.5017,2.9641 112.5183,3.8527 109.5636,4.6684 106.3415,5.4471 103.0683,6.1332 100.0382,6.7515 96.8383,7.4361 93.8715,7.9659 90.6581,8.4995 86.8211,9.1691 83.276,9.744 79.7534,10.0806 76.2548,10.2006 73.2656,10.2155 70.0538,10.2286 66.8918,10.2286 64.0161,10.2122 61.056,10.1883 58.136,10.1684 55.0334,10.1575 51.513,10.1449 47.994,10.0942 44.3807,9.8212 40.9871,9.3749 37.6411,8.9413 34.3869,8.5444 31.5279,8.1213 28.5184,7.694 25.2601,7.2717 22.0637,6.835 18.9043,6.4157 15.5723,5.8898 12.5646,5.2767 9.5622,4.6084 6.4661,3.9142 3.3962,3.5275 0.8915,3.4786 0,3.4814 A3.4814,3.4814 0 0 1 0,-3.4814 Z" stroke-linecap="round" fill="#1d1d1d"/></g></g><g transform="matrix(1, 0, 0, 1, 474.8516, 383.1719)" opacity="1"><g transform="scale(1)"><path d="M2.8524,2.0496 T2.0393,3.1961 0.3118,5.6274 -1.5434,8.1718 -3.2898,10.7123 -4.8174,13.3131 -6.3565,16.0171 -8.0391,18.7379 -9.7443,21.4739 -11.356,24.3007 -12.8484,27.3822 -14.2331,30.8014 -15.4367,34.0418 -16.3509,37.0246 -17.0829,40.1004 -17.7642,43.1057 -18.4328,46.2077 -18.818,49.8422 -18.8813,52.5222 -18.9038,53.2322 A3.9174,3.9174 0 0 1 -26.7353,53.0043 T-26.6027,51.4604 -26.317,48.5159 -25.9891,45.6821 -25.464,42.7414 -24.7851,39.866 -24.1078,37.1105 -23.2649,33.8775 -22.167,30.4325 -20.892,27.012 -19.3618,23.3571 -17.6346,19.9468 -15.9311,17.0569 -14.1332,14.2421 -12.3901,11.4592 -10.8498,8.8556 -9.229,6.2973 -7.3956,3.8694 -5.4115,1.3762 -3.6262,-0.9876 -2.8524,-2.0496 A3.5124,3.5124 0 0 1 2.8524,2.0496 Z" stroke-linecap="round" fill="#1d1d1d"/></g></g><g transform="matrix(1, 0, 0, 1, 595.8984, 379.8438)" opacity="1"><g transform="scale(1)"><path d="M2.103,-2.7345 T3.3038,-1.8247 5.6683,0.2036 8.0707,2.5457 10.2136,4.9025 12.1685,7.386 14.0826,10.0173 15.7924,12.4832 17.6351,15.1847 19.6103,18.2701 21.6628,21.6488 23.6887,25.036 25.5579,28.0846 27.2438,30.9017 28.7206,33.6655 30.063,36.5114 31.378,39.4379 32.6897,42.3884 33.8458,45.2054 34.9362,47.8595 36.1728,50.6981 37.2458,53.8009 37.6478,55.354 A3.6658,3.6658 0 0 1 30.495,56.9638 T29.8892,54.9012 28.6962,51.4297 27.4614,48.277 26.2545,45.2197 24.995,42.3767 23.4072,38.8413 21.5566,35.0421 19.6565,31.7569 17.7226,28.6599 15.6643,25.3785 13.5783,22.1449 11.6633,19.2824 9.8032,16.6495 7.7654,13.8205 5.4667,10.6778 3.223,7.8843 1.1797,5.6133 -0.9768,3.6143 -2.103,2.7345 A3.4497,3.4497 0 0 1 2.103,-2.7345 Z" stroke-linecap="round" fill="#1d1d1d"/></g></g><g transform="matrix(1, 0, 0, 1, 452.0039, 437.4219)" opacity="1"><g transform="scale(1)"><path d="M2.1523,-2.7108 T2.9742,-2.0417 5.0382,-0.346 7.6506,1.8131 10.3066,3.8651 12.8091,5.5585 15.4944,6.9916 18.5524,8.289 21.6337,9.4222 25.0488,10.4481 28.6332,11.3429 32.2321,12.095 36.2114,12.8488 39.8116,13.4309 42.9831,13.7894 46.2506,14.0676 49.431,14.3184 52.6525,14.5569 56.1801,14.82 59.7022,15.0113 62.9249,15.0741 66.0297,15.1865 69.3413,15.3262 73.1177,15.3661 76.5957,15.3681 80.0062,15.3599 83.6358,15.3374 86.8437,15.3089 90.0383,15.2856 93.1952,15.2657 96.1073,15.2446 99.2363,15.2331 102.7608,15.1503 105.9698,14.9809 109.3035,14.6752 112.8523,14.1921 116.1446,13.6432 119.2453,12.9864 122.2718,12.1981 125.4166,11.4109 128.8897,10.5477 132.6652,9.5474 136.2905,8.5979 139.6604,7.6621 142.9472,6.5418 146.2673,5.338 149.2307,4.3185 152.1752,3.351 155.5827,2.3346 158.9349,1.441 162.2714,0.5435 165.5563,-0.437 168.4361,-1.3761 171.1563,-2.3569 172.5048,-2.8855 A3.8397,3.8397 0 0 1 175.4607,4.2022 T174.0663,4.7649 171.2486,5.7849 168.3263,6.7112 165.0443,7.6763 161.374,8.6714 158.0339,9.5826 155.0366,10.4541 152.0881,11.3527 148.9727,12.3671 145.9217,13.4245 143.1078,14.3877 140.1521,15.2329 136.9757,16.0554 133.3471,17.0458 129.5199,18.0708 126.1106,18.8918 123.0943,19.642 119.742,20.4534 116.2371,21.1174 112.7327,21.6577 109.4387,22.0859 106.5894,22.3508 103.0733,22.5617 99.2363,22.6692 96.1073,22.6576 93.1952,22.6365 90.0383,22.6166 86.8436,22.5933 83.6353,22.5646 80.0035,22.541 76.5853,22.5292 73.7352,22.5178 70.3514,22.4587 66.3913,22.2612 62.8322,22.0967 59.4569,22.0375 55.7374,21.8896 52.0885,21.6807 48.9457,21.4719 45.738,21.25 42.2175,21.0111 38.7973,20.6857 34.9464,20.1212 30.9578,19.3985 27.1199,18.609 23.6977,17.8201 20.4535,16.8981 16.7949,15.6027 13.3138,14.1528 10.252,12.5927 7.7051,10.8807 5.441,9.1188 3.1034,7.1187 0.7068,5.01 -1.3144,3.3595 -2.1523,2.7108 A3.4614,3.4614 0 0 1 2.1523,-2.7108 Z" stroke-linecap="round" fill="#1d1d1d"/></g></g><g transform="matrix(1, 0, 0, 1, 497.1797, 401.0664)" opacity="1"><g transform="scale(1)"><path d="M0.115,-3.3724 T1.1198,-3.3343 4.0359,-2.8946 7.4265,-1.8319 10.1785,-0.418 12.6662,1.1164 15.1393,2.7983 18.0381,4.9638 20.7418,7.1784 22.8511,9.2006 23.8973,10.2734 A3.6694,3.6694 0 0 1 18.4301,15.169 T17.107,13.7308 14.5339,11.2175 11.7033,8.97 8.915,6.9965 6.2825,5.3188 3.3731,3.9377 0.8868,3.4027 -0.115,3.3724 A3.3743,3.3743 0 0 1 0.115,-3.3724 ZM21.4265,16.3811 T20.2991,16.4812 17.5794,16.598 14.3333,16.6431 10.7733,17.1305 7.3018,18.2316 4.1628,19.6376 0.9093,21.3307 -2.4998,23.2998 -4.2295,24.34 A3.592,3.592 0 0 1 -7.89,18.1585 T-6.6298,17.4087 -3.7061,15.7148 -0.4977,13.9561 2.8221,12.2984 6.5828,10.6998 10.433,9.5744 14.1411,9.1642 17.5562,9.137 20.0144,9.1058 20.901,9.0613 A3.6694,3.6694 0 0 1 21.4265,16.3811 Z" stroke-linecap="round" fill="#1d1d1d"/></g></g><g transform="matrix(1, 0, 0, 1, 583.4531, 398.3164)" opacity="1"><g transform="scale(1)"><path d="M-0.1739,3.4789 T-1.2675,3.407 -3.7738,3.4028 -6.5102,4.3065 -8.9464,6.0571 -11.1646,8.0109 -13.1623,10.1683 -15.0558,13.2764 -16.0574,15.2663 A3.8687,3.8687 0 0 1 -22.8233,11.5129 T-22.2421,10.186 -20.7749,7.6636 -18.9554,5.3528 -16.8716,3.203 -14.5311,1.1706 -12.1463,-0.5971 -9.4039,-2.1857 -6.4355,-3.3092 -3.5157,-3.5839 -0.9214,-3.5164 0.1739,-3.4789 A3.4833,3.4833 0 0 1 -0.1739,3.4789 ZM-20.8084,9.7709 T-19.3337,9.2637 -16.4193,8.7194 -13.2388,8.6878 -9.921,8.7288 -6.9214,8.9974 -4.1143,9.5613 -1.3455,10.3073 1.6654,11.3743 4.9075,12.7614 6.5228,13.4969 A3.8004,3.8004 0 0 1 3.4374,20.4432 T1.5182,19.5723 -1.8668,18.167 -5.1293,17.2234 -8.7174,16.6473 -11.9564,16.4886 -15.202,16.4996 -17.5362,16.7553 -18.0723,17.0083 A3.8687,3.8687 0 0 1 -20.8084,9.7709 Z" stroke-linecap="round" fill="#1d1d1d"/></g></g><g transform="matrix(1, 0, 0, 1, 537.5391, 435.8711)" opacity="1"><g transform="scale(1)"><path d="M-2.083,-2.794 T-1.0807,-3.5044 0.9928,-5.117 2.9076,-7.2252 4.2557,-9.8499 4.8216,-12.8116 4.8523,-16.0274 4.8214,-17.7002 A3.7975,3.7975 0 0 1 12.4164,-17.6987 T12.3877,-16.2418 12.2985,-13.2374 11.9238,-10.1818 10.9805,-7.1532 9.5103,-4.2952 7.6105,-1.8692 5.2845,0.2488 3.0501,2.0361 2.083,2.794 A3.485,3.485 0 0 1 -2.083,-2.794 ZM12.4164,-17.6994 T12.4329,-16.7256 13.0012,-14.3896 14.2317,-11.7906 15.8461,-9.2681 18.0029,-7.3638 19.2239,-6.7451 A3.9137,3.9137 0 0 1 18.2749,1.0246 T16.1991,0.4568 12.9799,-1.0518 10.668,-3.2963 8.74,-5.7773 7.2674,-8.3302 5.9297,-11.261 5.0468,-14.284 4.8049,-16.7256 4.8214,-17.6994 A3.7975,3.7975 0 0 1 12.4164,-17.6994 Z" stroke-linecap="round" fill="#1d1d1d"/></g></g><g transform="matrix(1, 0, 0, 1, 499.3555, 345.3008)" opacity="1"><g transform="scale(1)"><path d="M-1.6689,3.0147 T-2.6411,2.4571 -4.9171,1.0551 -7.4533,-0.9454 -9.7655,-3.7861 -11.5094,-7.1155 -12.6095,-10.2765 -13.4112,-13.4202 -14.0672,-16.6221 -14.4959,-19.7546 -14.7842,-23.2275 -14.9567,-26.8175 -14.9899,-30.0595 -15.013,-33.2788 -15.0358,-36.4634 -15.0626,-39.4753 -15.1002,-42.4417 -15.1215,-43.9283 A3.8716,3.8716 0 0 1 -7.3783,-43.9283 T-7.4045,-42.1215 -7.4448,-38.7938 -7.4693,-35.7241 -7.487,-32.444 -7.4849,-29.1102 -7.4471,-25.9766 -7.2777,-22.7021 -6.9278,-19.2187 -6.4354,-16.0104 -5.7316,-12.8701 -4.7744,-9.7276 -3.4506,-7.0526 -1.4858,-4.9594 0.6805,-3.5424 1.6689,-3.0147 A3.4458,3.4458 0 0 1 -1.6689,3.0147 ZM-7.4417,-44.626 T-7.6528,-44.5113 -6.9396,-43.2739 -4.8727,-40.8758 -2.786,-38.3375 -0.9284,-35.862 1.0422,-33.5194 3.2261,-31.2535 5.3898,-29.1451 7.8083,-27.0208 10.6784,-24.6945 13.3068,-22.4868 15.5591,-20.4484 17.8353,-18.3325 20.3794,-16.6864 21.7598,-16.1506 A3.9283,3.9283 0 0 1 20.3166,-8.4276 T19.1047,-8.6296 16.5217,-9.4685 14.1294,-11.0733 12.0878,-13.0341 9.7793,-15.1794 7.1339,-17.4423 4.4443,-19.552 1.9263,-21.5786 -0.5799,-23.8895 -3.0238,-26.3395 -5.2285,-28.6821 -7.2521,-31.1447 -9.1302,-33.6858 -11.0307,-35.988 -12.9502,-38.2524 -14.4814,-41.35 -15.0581,-43.2307 A3.8716,3.8716 0 0 1 -7.4417,-44.626 Z" stroke-linecap="round" fill="#1d1d1d"/></g></g><g transform="matrix(1, 0, 0, 1, 488.5273, 337.4141)" opacity="1"><g transform="scale(1)"><path d="M2.1751,2.8165 T1.4143,3.4212 -0.2995,5.0483 -1.9808,7.5124 -3.3419,10.2113 -4.886,13.4431 -5.7972,15.4177 A3.8611,3.8611 0 0 1 -12.8634,12.3029 T-11.8923,10.2902 -10.1899,6.9079 -8.7637,4.2941 -7.2187,1.8425 -5.0879,-0.4778 -2.991,-2.2035 -2.1751,-2.8165 A3.5586,3.5586 0 0 1 2.1751,2.8165 Z" stroke-linecap="round" fill="#1d1d1d"/></g></g><g transform="matrix(1, 0, 0, 1, 582.1367, 336.3867)" opacity="1"><g transform="scale(1)"><path d="M2.2725,-2.6503 T2.9616,-2.0836 4.747,-0.4946 6.8505,1.7572 8.8075,4.1519 10.7369,6.7112 11.7164,8.1053 A3.7913,3.7913 0 0 1 5.2437,12.0552 T4.8489,11.3694 3.6128,9.5167 1.9035,7.2466 0.1135,5.0488 -1.5405,3.3021 -2.2725,2.6503 A3.4912,3.4912 0 0 1 2.2725,-2.6503 Z" stroke-linecap="round" fill="#1d1d1d"/></g></g><g transform="matrix(1, 0, 0, 1, 511.1758, 324.8516)" opacity="1"><g transform="scale(1)"><path d="M0,-3.5938 T1.0907,-3.6038 3.6311,-3.7657 6.4736,-4.3469 9.3212,-5.0962 12.4079,-5.5622 15.544,-5.7501 18.5721,-5.7971 21.6758,-5.8094 24.6736,-5.8258 27.6083,-5.8449 30.6456,-5.8649 33.5666,-5.8799 36.4205,-5.883 39.3526,-5.6685 42.322,-5.2628 45.3933,-4.8739 48.5515,-4.2613 51.2353,-3.4499 52.3414,-3.0553 A3.9835,3.9835 0 0 1 49.4162,4.3553 T48.1912,3.9409 45.4956,3.207 42.3823,2.7261 39.3044,2.3227 36.4178,2.0829 33.5666,2.0798 30.6456,2.0647 27.6083,2.0447 24.6736,2.0256 21.6758,2.0093 18.5743,1.9973 15.5746,2.0538 12.5451,2.1818 9.6345,2.5734 6.6633,3.1802 3.6162,3.5379 1.0907,3.6038 0,3.5938 A3.5938,3.5938 0 0 1 0,-3.5938 Z" stroke-linecap="round" fill="#1d1d1d"/></g></g><g transform="matrix(1, 0, 0, 1, 518.7734, 333.6016)" opacity="1"><g transform="scale(1)"><path d="M2.9316,2.098 T2.2561,3.0551 0.6684,5.2257 -1.1131,7.5799 -3.0697,9.6344 -5.4809,11.3588 -8.1717,12.7125 -10.9264,13.7335 -13.9024,14.5734 -17.7026,15.0852 -19.9145,15.2349 A3.9148,3.9148 0 0 1 -19.9257,7.4052 T-18.492,7.361 -15.6565,7.0116 -12.7282,6.1599 -9.8857,5.0066 -7.4322,3.2772 -5.2598,0.9188 -3.5783,-1.2075 -2.9316,-2.098 A3.6049,3.6049 0 0 1 2.9316,2.098 Z" stroke-linecap="round" fill="#1d1d1d"/></g></g><g transform="matrix(1, 0, 0, 1, 574.6767, 343.7891)" opacity="1"><g transform="scale(1)"><path d="M-1.6689,-3.0147 T-0.6805,-3.5424 1.4858,-4.9594 3.4506,-7.0526 4.7744,-9.7276 5.7316,-12.8701 6.4354,-16.0104 6.9278,-19.2187 7.2777,-22.7021 7.4471,-25.9766 7.4849,-29.1102 7.487,-32.444 7.4693,-35.7241 7.4448,-38.7938 7.4045,-42.1215 7.3783,-43.9283 A3.8716,3.8716 0 0 1 15.1215,-43.9283 T15.1002,-42.4417 15.0626,-39.4753 15.0358,-36.4634 15.013,-33.2788 14.9899,-30.0595 14.9567,-26.8175 14.7842,-23.2275 14.4959,-19.7546 14.0672,-16.6221 13.4112,-13.4202 12.6095,-10.2765 11.5094,-7.1155 9.7655,-3.7861 7.4533,-0.9454 4.9171,1.0551 2.6411,2.4571 1.6689,3.0147 A3.4458,3.4458 0 0 1 -1.6689,-3.0147 ZM15.0581,-43.2307 T14.4814,-41.35 12.9502,-38.2524 11.0307,-35.988 9.1302,-33.6858 7.2521,-31.1447 5.2285,-28.6821 3.0238,-26.3395 0.5799,-23.8895 -1.9263,-21.5786 -4.4443,-19.552 -7.1339,-17.4423 -9.7793,-15.1794 -12.0878,-13.0341 -14.1294,-11.0733 -16.5217,-9.4685 -19.1047,-8.6296 -20.3166,-8.4276 A3.9283,3.9283 0 0 1 -21.7598,-16.1506 T-20.3794,-16.6864 -17.8353,-18.3325 -15.5591,-20.4484 -13.3068,-22.4868 -10.6784,-24.6945 -7.8083,-27.0208 -5.3898,-29.1451 -3.2261,-31.2535 -1.0422,-33.5194 0.9284,-35.862 2.786,-38.3375 4.8727,-40.8758 6.9396,-43.2739 7.6528,-44.5113 7.4417,-44.626 A3.8716,3.8716 0 0 1 15.0581,-43.2307 Z" stroke-linecap="round" fill="#1d1d1d"/></g></g><g transform="matrix(1, 0, 0, 1, 555.2588, 332.0898)" opacity="1"><g transform="scale(1)"><path d="M2.9316,-2.098 T3.5783,-1.2075 5.2598,0.9188 7.4322,3.2772 9.8857,5.0066 12.7282,6.1599 15.6565,7.0116 18.492,7.361 19.9257,7.4052 A3.9148,3.9148 0 0 1 19.9145,15.2349 T17.7026,15.0852 13.9024,14.5734 10.9264,13.7335 8.1717,12.7125 5.4809,11.3588 3.0697,9.6344 1.1131,7.5799 -0.6684,5.2257 -2.2561,3.0551 -2.9316,2.098 A3.6049,3.6049 0 0 1 2.9316,-2.098 Z" stroke-linecap="round" fill="#1d1d1d"/></g></g></svg>