<svg xmlns="http://www.w3.org/2000/svg" direction="ltr" width="213.53259277299753" height="235.42672236588635" viewBox="752.6318817143072 272.0248842764039 213.53259277299753 235.42672236588635" stroke-linecap="round" stroke-linejoin="round" data-color-mode="light" class="tl-container tl-theme__force-sRGB tl-theme__light" style="background-color: rgb(249, 250, 251);"><defs/><g transform="matrix(1, 0, 0, 1, 842.2148, 471.4531)" opacity="1"><g transform="scale(1)"><path d="M-3.1266,0 T-3.0626,-1.7079 -2.9788,-4.8877 -2.9965,-8.4501 -3.0588,-12.6822 -3.0947,-17.0986 -3.0784,-22.0727 -3.0635,-27.0883 -3.0925,-31.6117 -3.1467,-35.5201 -3.2179,-38.7973 -3.2825,-41.813 -3.3385,-44.6983 -3.384,-47.5851 -3.4328,-51.0401 -3.4829,-55.0288 -3.504,-58.656 -3.4961,-62.0777 -3.4852,-65.5937 -3.4752,-69.1372 -3.4755,-72.5024 -3.4496,-75.74 -3.3532,-78.8617 -3.2627,-81.8458 -3.1937,-84.9513 -3.0613,-87.9903 -2.9446,-90.956 -2.8904,-94.4677 -2.7237,-98.7038 -2.414,-102.742 -1.8645,-107.0645 -1.2444,-110.9762 -0.7544,-113.8285 -0.0953,-117.7779 0.7253,-122.6216 1.6368,-127.2745 2.6743,-131.7392 3.6386,-135.7343 4.5555,-139.3795 5.4022,-142.6576 6.2631,-146.0873 7.4208,-150.0131 8.9003,-153.7501 10.3976,-156.9218 11.9099,-159.6023 13.7939,-162.2252 16.0351,-164.5536 18.3981,-166.3752 20.7798,-167.9946 23.5398,-169.5456 26.4522,-170.7389 29.2802,-171.2352 32.1431,-171.0377 34.8233,-170.1056 37.6258,-168.3614 40.2394,-166.3718 42.4316,-164.3928 44.6241,-162.2881 46.6995,-160.0528 48.5866,-157.5092 49.9974,-154.8412 50.917,-151.7898 51.5209,-148.1937 51.811,-144.5292 51.8874,-140.555 51.8408,-136.3728 51.7778,-132.3237 51.6709,-127.7215 51.5564,-122.7538 51.4598,-117.6934 51.3604,-113.5223 51.2803,-110.4876 51.2172,-107.4799 51.1719,-104.5305 51.1363,-101.5972 51.0266,-98.3582 50.8196,-94.8446 50.5976,-91.4717 50.3813,-88.2697 50.2042,-85.1468 50.1003,-82.1156 50.0783,-78.111 50.1395,-73.5271 50.242,-69.8041 50.3433,-66.5075 50.421,-63.0794 50.4846,-59.685 50.5839,-56.6042 50.8071,-53.5962 51.1423,-50.6549 51.5446,-47.6706 51.9766,-44.4224 52.3845,-41.2064 52.7769,-38.1743 53.1007,-35.2899 53.4715,-32.1187 53.899,-28.5174 54.2998,-24.8089 54.6997,-21.5156 55.175,-18.5333 55.7621,-15.5684 56.2361,-12.6053 56.575,-9.1136 56.8809,-5.6159 57.1785,-2.1223 57.3325,-0.1964 A3.8515,3.8515 0 0 1 49.6863,0.7376 T49.5447,-0.7948 49.2933,-3.8036 49.1246,-6.8981 48.9225,-10.2164 48.527,-13.4219 48.0831,-16.3292 47.6776,-19.4679 47.2928,-22.9143 46.9312,-26.5622 46.5681,-30.2542 46.2373,-33.9277 45.9056,-37.3369 45.5552,-40.3751 45.1834,-43.5801 44.7816,-46.8748 44.4331,-49.9681 44.1657,-53.1003 44.0208,-56.4243 44.0337,-59.6856 44.0982,-63.0813 44.1789,-66.5144 44.2904,-69.8231 44.4273,-73.5681 44.5811,-78.2085 44.7036,-82.2953 44.8057,-85.4285 44.9572,-88.5995 45.127,-91.7464 45.2374,-95.0327 45.2645,-98.4295 45.2414,-101.5972 45.2058,-104.5305 45.1605,-107.4799 45.0973,-110.4876 45.0172,-113.5222 44.9176,-117.693 44.8201,-122.7524 44.7028,-127.7162 44.5863,-132.303 44.4909,-136.3044 44.3348,-140.3039 44.0734,-143.9301 43.7123,-147.1057 43.1355,-150.2923 41.949,-153.0794 40.1706,-155.3247 38.1319,-157.4576 35.6989,-159.781 33.2101,-161.859 30.6477,-163.1726 27.889,-163.1296 25.2354,-161.8395 22.624,-160.1922 20.1699,-158.2234 18.1511,-156.0066 16.659,-153.6306 15.2714,-150.9444 13.8819,-147.7314 12.7076,-144.2195 11.7427,-140.9055 10.8172,-137.7092 9.843,-134.1758 8.8357,-130.2655 7.8346,-126.0254 6.9718,-121.5384 6.2404,-116.835 5.733,-112.9224 5.2938,-108.8167 4.8363,-104.0711 4.5437,-100.4551 4.3409,-97.5374 4.2012,-94.2502 4.1163,-90.7405 3.9832,-87.634 3.8341,-84.7163 3.7524,-81.6648 3.6366,-78.5845 3.5181,-75.5961 3.4755,-72.5024 3.4752,-69.1372 3.4852,-65.5937 3.4961,-62.0777 3.504,-58.656 3.4829,-55.0288 3.4328,-51.0401 3.384,-47.5851 3.3385,-44.6983 3.2825,-41.813 3.2179,-38.7973 3.1467,-35.5201 3.0925,-31.6117 3.0635,-27.0883 3.0784,-22.0727 3.0947,-17.0986 3.0588,-12.6822 2.9965,-8.4501 2.9788,-4.8877 3.0626,-1.7079 3.1266,0 A3.1266,3.1266 0 0 1 -3.1266,0 Z" stroke-linecap="round" fill="#1d1d1d"/></g></g><g transform="matrix(1, 0, 0, 1, 841.0508, 472.7813)" opacity="1"><g transform="scale(1)"><path d="M0,-3.4925 T1.4044,-3.5021 4.6464,-3.2657 8.2292,-2.6357 11.5854,-1.9666 14.7979,-1.539 17.8719,-1.2662 20.8145,-1.1278 23.8435,-1.127 26.9364,-1.1419 30.1586,-1.1593 33.5199,-1.1712 36.8508,-1.4602 39.9457,-2.0613 43.0791,-2.7598 46.2232,-3.4259 49.2065,-4.0864 51.6227,-4.7507 52.5032,-5.0365 A3.8934,3.8934 0 0 1 54.9487,2.3563 T53.7189,2.7816 50.8788,3.5593 47.7405,4.1822 44.6094,4.8201 41.561,5.4965 38.6888,6.0613 35.8202,6.4149 32.7185,6.5101 29.3841,6.497 26.1576,6.4784 23.0593,6.4576 20.078,6.3898 17.2173,6.1761 14.0289,5.8229 10.602,5.2945 7.2908,4.5395 4.2259,3.8149 1.4041,3.5021 0,3.4925 A3.4925,3.4925 0 0 1 0,-3.4925 Z" stroke-linecap="round" fill="#1d1d1d"/></g></g><g transform="matrix(1, 0, 0, 1, 839.5508, 373.1484)" opacity="1"><g transform="scale(1)"><path d="M0,3.5238 T-1.1644,3.5379 -3.8832,3.5839 -6.9418,3.6317 -10.0762,3.6694 -13.4658,3.534 -16.9206,2.8952 -19.9269,1.6927 -22.6442,0.0111 -25.093,-2.0363 -26.9998,-4.5199 -28.5021,-7.2746 -29.7089,-10.1727 -30.6939,-13.0502 -31.4837,-15.8801 -32.0846,-18.9835 -32.4628,-22.0504 -32.6226,-25.0147 -32.7741,-28.0304 -32.9293,-30.9641 -33.058,-33.9137 -33.3215,-36.8268 -34.076,-39.5869 -35.7755,-41.8375 -38.2795,-43.0603 -41.1414,-43.4013 -43.9681,-43.0483 -46.5967,-41.6945 -48.5995,-39.2035 -49.8374,-36.3218 -50.5579,-33.4321 -50.8432,-30.3237 -50.8963,-27.3169 -50.8992,-24.5086 -50.9053,-21.4322 -50.9168,-18.1221 -50.87,-15.0006 -50.5683,-12.0232 -49.9752,-8.8659 -49.2276,-5.6003 -48.4408,-2.571 -47.5771,0.2211 -46.6192,3.0834 -45.5997,5.8972 -44.416,8.5346 -42.9854,11.245 -41.1336,13.8287 -38.7998,15.7099 -35.8055,16.8322 -32.5263,17.3782 -29.3429,17.5563 -26.2668,17.6161 -23.1842,17.614 -19.8417,17.6426 -16.6557,17.7501 -13.6569,17.8196 -10.6938,17.9372 -7.7836,18.1939 -4.4982,18.3405 -2.6799,18.354 A3.9811,3.9811 0 0 1 -2.6807,26.3161 T-4.4297,26.3269 -7.5978,26.1956 -10.4569,25.9157 -13.3066,25.7703 -16.2574,25.7368 -19.4049,25.6057 -22.6246,25.4967 -25.6872,25.4886 -28.6292,25.4628 -31.5552,25.3212 -34.5961,25.0404 -37.7105,24.5104 -40.7439,23.5729 -43.4677,22.2074 -45.8613,20.2882 -47.9722,17.9497 -49.6816,15.3324 -51.1774,12.496 -52.5139,9.5848 -53.6308,6.7948 -54.6913,3.7206 -55.7276,0.3786 -56.6436,-2.8906 -57.4838,-6.1666 -58.1315,-9.2504 -58.6119,-12.2061 -58.87,-15.0712 -58.921,-18.1221 -58.9325,-21.4322 -58.9386,-24.509 -58.9381,-27.3392 -58.9072,-30.3253 -58.6775,-33.3962 -58.1534,-36.4331 -57.3121,-39.4001 -56.1788,-42.2178 -54.6785,-44.9248 -52.6865,-47.3448 -50.3581,-49.1485 -47.624,-50.4239 -44.4784,-51.2271 -41.3272,-51.4519 -38.3276,-51.2607 -35.4825,-50.6919 -32.7879,-49.561 -30.2249,-47.7255 -28.1484,-45.466 -26.7198,-42.8636 -25.8312,-39.8632 -25.3542,-36.5465 -25.0863,-33.314 -24.9565,-30.3515 -24.815,-27.2736 -24.7056,-24.0884 -24.4733,-20.9014 -23.8432,-17.6812 -23.0083,-14.6492 -21.9181,-11.6791 -20.3783,-8.6721 -18.3575,-6.3478 -15.9198,-4.7876 -13.1621,-3.8965 -10.0757,-3.6694 -6.9418,-3.6317 -3.8832,-3.5839 -1.1644,-3.5379 0,-3.5238 A3.5238,3.5238 0 0 1 0,3.5238 Z" stroke-linecap="round" fill="#1d1d1d"/></g></g><g transform="matrix(1, 0, 0, 1, 891.9258, 415.3086)" opacity="1"><g transform="scale(1)"><path d="M0,-3.346 T1.3955,-3.3077 4.9192,-3.2669 8.97,-3.2747 12.3385,-3.3126 15.2144,-3.39 18.0474,-3.498 18.0354,-2.4777 16.3899,-2.8901 16.1311,-6.0227 16.0857,-9.3142 16.0505,-12.5865 16.0178,-15.7662 15.9889,-18.9153 15.9629,-22.0191 16.2897,-25.1239 17.1583,-28.2062 18.3108,-31.1905 19.6585,-33.9937 21.3901,-36.4789 23.4813,-38.6002 25.8879,-40.2578 28.6517,-41.1084 31.4921,-41.2527 34.6143,-40.9043 37.5089,-39.6284 39.5912,-37.6254 41.4938,-35.2411 43.2772,-32.6743 44.6715,-29.9849 45.5757,-27.1109 46.0394,-24.0438 46.2189,-20.8096 46.2329,-17.5649 46.227,-14.2492 46.2178,-11.0803 46.2089,-8.073 46.2073,-4.8868 46.2097,-1.7542 46.2181,1.2607 46.2302,4.2116 46.0217,7.0706 45.4647,9.9899 44.5795,12.8203 43.3524,15.3988 41.603,17.5982 39.3414,19.3814 36.5678,20.6786 33.3193,21.4243 30.1281,21.8329 27.193,22.1195 24.2457,22.3735 21.2067,22.6243 18.1639,22.754 15.1612,22.8977 12.2092,23.0389 9.2676,23.0425 6.4001,23.0444 3.4074,23.1586 0.6362,23.3296 -0.5528,23.3875 A4.0347,4.0347 0 0 1 -1.0483,15.3333 T1.2807,15.1338 5.0521,14.935 7.9444,14.9376 10.8371,14.9405 13.7628,14.8655 17.0113,14.724 20.2324,14.5295 23.1838,14.3426 26.1365,14.1431 29.1216,13.8477 32.2821,13.4861 35.0665,12.4148 36.8812,10.2294 37.8912,7.5066 38.2453,4.6292 38.2582,1.671 38.2673,-1.239 38.2703,-4.3065 38.2699,-7.4237 38.2623,-10.375 38.2528,-13.3159 38.2459,-16.2685 38.2261,-19.2112 38.0968,-22.0884 37.7376,-25.0122 36.7471,-27.808 35.2013,-30.2756 33.2616,-32.3451 30.6189,-33.1167 28.1139,-32.0072 26.4059,-29.7845 25.1191,-27.0928 24.1491,-24.171 23.7465,-21.1228 23.719,-17.9235 23.6881,-14.7649 23.657,-11.7433 23.6236,-8.6694 23.5802,-5.5247 23.6404,-2.4489 23.2965,0.504 21.1588,2.7438 18.0474,3.498 15.2144,3.39 12.3385,3.3126 8.97,3.2747 4.9192,3.2669 1.3955,3.3077 0,3.346 A3.346,3.346 0 0 1 0,-3.346 Z" stroke-linecap="round" fill="#1d1d1d"/></g></g><g transform="matrix(1, 0, 0, 1, 855.1328, 454.9961)" opacity="1"><g transform="scale(1)"><path d="M-3.2046,0 T-3.2138,-0.9621 -3.2306,-3.952 -3.2382,-5.9797 A3.2382,3.2382 0 0 1 3.2382,-5.9797 T3.2306,-3.952 3.2138,-0.9621 3.2046,0 A3.2046,3.2046 0 0 1 -3.2046,0 Z" stroke-linecap="round" fill="#1d1d1d"/></g></g><g transform="matrix(1, 0, 0, 1, 873.8164, 406.8164)" opacity="1"><g transform="scale(1)"><path d="M3.1894,0.1343 T3.1184,1.4333 3.0299,4.4956 2.9899,7.397 2.9673,8.5352 A3.2078,3.2078 0 0 1 -3.4473,8.4263 T-3.4313,7.288 -3.3407,4.3082 -3.2278,1.1661 -3.1894,-0.1343 A3.1923,3.1923 0 0 1 3.1894,0.1343 Z" stroke-linecap="round" fill="#1d1d1d"/></g></g><g transform="matrix(1, 0, 0, 1, 860.1523, 350.1211)" opacity="1"><g transform="scale(1)"><path d="M3.2961,0 T3.3049,0.864 3.3569,3.4332 3.4196,7.2388 3.4391,9.339 A3.4391,3.4391 0 0 1 -3.4391,9.339 T-3.4196,7.2388 -3.3569,3.4332 -3.3049,0.864 -3.2961,0 A3.2961,3.2961 0 0 1 3.2961,0 Z" stroke-linecap="round" fill="#1d1d1d"/></g></g></svg>