<svg xmlns="http://www.w3.org/2000/svg" direction="ltr" width="185.50238800048828" height="163.4552001953125" viewBox="565.5234375 535.04345703125 185.50238800048828 163.4552001953125" stroke-linecap="round" stroke-linejoin="round" data-color-mode="light" class="tl-container tl-theme__force-sRGB tl-theme__light" style="background-color: rgb(249, 250, 251);"><defs/><g transform="matrix(1, 0, 0, 1, 597.5234, 649.1133)" opacity="1"><g transform="scale(1)"><path d="M-3.3005,-0.5502 T-3.0035,-2.0195 -2.191,-5.7029 -1.3002,-9.4959 -0.6344,-12.8411 -0.285,-16.3093 0.1507,-19.4417 1.1244,-22.4558 2.3758,-25.4251 4.3447,-28.3808 6.7172,-30.8905 9.1488,-33.0506 12.0503,-35.6513 15.3962,-38.7198 19.1368,-42.2684 23.1139,-46.1156 27.0201,-49.9256 30.5246,-53.4571 33.7013,-56.7832 36.5848,-59.8829 39.2618,-62.783 41.7336,-65.4978 43.8987,-68.0036 46.4804,-71.2794 49.2825,-75.0576 51.3736,-77.9978 53.0967,-80.4609 55.3871,-83.114 56.8141,-84.5324 A3.1644,3.1644 0 0 1 60.7886,-79.6072 T59.4195,-78.4275 56.9028,-75.9447 54.5446,-73.3125 51.746,-70.1854 49.1815,-67.3288 47.0838,-65.0917 44.7311,-62.664 42.1596,-60.0474 39.4476,-57.237 36.5914,-54.1222 33.5016,-50.6432 30.1397,-46.9123 26.4861,-42.8961 22.8433,-38.7699 19.5004,-34.8125 16.5654,-31.2772 13.982,-28.2103 11.7207,-25.6673 9.6939,-23.2705 7.999,-20.3341 6.9364,-17.0305 6.3372,-13.886 5.792,-10.959 5.044,-7.954 4.1562,-4.4147 3.4961,-0.9358 3.3005,0.5502 A3.3461,3.3461 0 0 1 -3.3005,-0.5502 Z" stroke-linecap="round" fill="#1d1d1d"/></g></g><g transform="matrix(1, 0, 0, 1, 652.4883, 648.4648)" opacity="1"><g transform="scale(1)"><path d="M-3.0326,-0.4081 T-2.8412,-1.7459 -2.262,-4.6397 -1.4228,-7.5985 -0.0393,-11.3894 2.1332,-16.4301 3.9911,-20.4111 5.6078,-24.0919 7.238,-28.1635 8.3615,-31.4202 9.1406,-34.5453 9.4142,-37.6786 9.5338,-40.6683 10.8669,-43.3475 13.6013,-44.7494 16.5907,-44.9122 20.2034,-44.9307 25.1042,-45.0803 30.4963,-45.236 35.3638,-45.319 39.0628,-45.5129 42.5726,-45.8204 44.6021,-45.989 A3.4458,3.4458 0 0 1 44.9782,-39.1076 T43.8754,-39.0934 41.2468,-39.0633 37.6795,-38.9335 33.1809,-38.7445 28.1968,-38.4817 24.2597,-38.1093 20.4516,-37.7766 16.0923,-37.6454 15.3045,-38.4419 16.4113,-37.7482 16.0151,-34.8384 15.2478,-32.0603 14.1697,-29.2044 12.7717,-25.9244 10.9659,-21.7516 9.314,-17.9654 7.5814,-14.0341 5.5813,-9.3354 4.0401,-4.7299 3.2014,-0.9311 3.0326,0.4081 A3.0599,3.0599 0 0 1 -3.0326,-0.4081 ZM47.949,-43.9251 T48.4845,-42.7669 49.5496,-40.3077 50.8238,-37.3185 52.544,-33.4613 54.0827,-29.9402 55.2611,-27.0901 56.4543,-24.2918 58.1757,-20.4243 60.4549,-15.4872 62.5745,-11.0935 64.4062,-7.5453 66.0827,-4.4902 68.1402,-0.8989 69.369,1.1614 A3.336,3.336 0 0 1 63.7061,4.6894 T62.7004,2.8864 61.1017,-0.2203 59.6994,-3.1112 58.0269,-6.5197 56.1237,-10.5701 54.4517,-14.0594 52.6155,-17.8373 50.7695,-21.6551 49.3886,-24.4099 48.0225,-27.1329 46.3179,-30.5533 44.4167,-34.4843 42.9658,-37.8354 41.985,-40.2895 41.6313,-41.1715 A3.4458,3.4458 0 0 1 47.949,-43.9251 Z" stroke-linecap="round" fill="#1d1d1d"/></g></g><g transform="matrix(1, 0, 0, 1, 655.9414, 569.957)" opacity="1"><g transform="scale(1)"><path d="M2.6562,-1.7457 T3.4178,-0.5324 5.3878,2.323 7.7724,5.7576 10.104,9.4978 12.5041,13.4088 14.9007,17.203 16.9552,20.3416 18.8758,23.0546 20.7281,25.5969 22.4697,28.143 24.1699,30.762 24.9631,31.9717 A3.5908,3.5908 0 0 1 18.9556,35.9069 T18.1412,34.5927 16.5084,31.8599 14.8264,29.0704 13.2035,26.4689 11.5463,23.8218 9.5534,20.623 7.0963,16.7404 4.6359,12.7816 2.5296,9.3138 0.2443,5.9055 -1.8446,2.9262 -2.6562,1.7457 A3.1785,3.1785 0 0 1 2.6562,-1.7457 Z" stroke-linecap="round" fill="#1d1d1d"/></g></g><g transform="matrix(1, 0, 0, 1, 597.6523, 648.7422)" opacity="1"><g transform="scale(1)"><path d="M0,-3.3581 T1.2905,-3.3307 4.6871,-3.1292 8.4295,-2.6898 11.5408,-2.1365 14.4173,-1.6743 17.3977,-1.3652 20.4593,-0.829 21.9421,-0.4275 A3.5711,3.5711 0 0 1 19.9387,6.4279 T17.8368,5.979 14.1877,5.2803 10.8267,4.6177 7.4077,3.9091 4.1918,3.4583 1.2905,3.3307 0,3.3581 A3.3581,3.3581 0 0 1 0,-3.3581 Z" stroke-linecap="round" fill="#1d1d1d"/></g></g><g transform="matrix(1, 0, 0, 1, 716.5156, 655.4375)" opacity="1"><g transform="scale(1)"><path d="M0,3.27 T-1.1692,3.2603 -3.8947,3.5009 -6.7882,4.2953 -9.4537,5.5911 -12.3725,7.2462 -15.7232,9.152 -18.9823,11.0058 -22.2673,12.8971 -24.0534,13.9369 A3.3397,3.3397 0 0 1 -27.4495,8.1854 T-25.6442,7.1046 -22.314,5.1837 -19.0235,3.3237 -15.657,1.4098 -12.4044,-0.3592 -8.8152,-1.9361 -4.6089,-2.9443 -1.17,-3.2603 0,-3.27 A3.27,3.27 0 0 1 0,3.27 Z" stroke-linecap="round" fill="#1d1d1d"/></g></g><g transform="matrix(1, 0, 0, 1, 652.8789, 648.7539)" opacity="1"><g transform="scale(1)"><path d="M0.7848,-3.1158 T2.0301,-2.785 5.663,-1.6834 10.1433,-0.1493 14.0189,1.4236 17.6084,3.1762 21.0772,5.0238 24.1991,6.712 26.9587,8.2189 29.6828,9.7977 33.361,11.97 35.615,13.2868 A3.5261,3.5261 0 0 1 31.8269,19.2352 T30.01,18.1026 26.9889,16.1757 24.1082,14.3439 21.0167,12.4976 17.918,10.7442 14.642,8.9345 11.4857,7.3027 7.9652,5.8038 3.8651,4.3921 0.4685,3.4143 -0.7848,3.1158 A3.2131,3.2131 0 0 1 0.7848,-3.1158 Z" stroke-linecap="round" fill="#1d1d1d"/></g></g><g transform="matrix(1, 0, 0, 1, 617.4375, 652.4766)" opacity="1"><g transform="scale(1)"><path d="M0,-3.1653 T1.1879,-3.1614 4.8044,-3.1469 9.7624,-3.1198 14.3656,-3.1245 18.6921,-3.1489 22.3503,-3.1274 26.4133,-3.0795 30.6552,-3.0169 33.7057,-2.9603 37.7565,-2.9504 41.8135,-2.9414 45.0425,-2.8721 46.7991,-2.819 A2.819,2.819 0 0 1 46.7991,2.819 T45.0425,2.8721 41.8135,2.9414 37.7565,2.9504 33.7057,2.9603 30.6552,3.0169 26.4133,3.0795 22.3503,3.1274 18.6921,3.1489 14.3656,3.1245 9.7624,3.1198 4.8044,3.1469 1.1879,3.1614 0,3.1653 A3.1653,3.1653 0 0 1 0,-3.1653 Z" stroke-linecap="round" fill="#1d1d1d"/></g></g><g transform="matrix(1, 0, 0, 1, 686.4414, 632.0156)" opacity="1"><g transform="scale(1)"><path d="M3.3673,0 T3.3437,1.2473 3.3357,4.1842 3.373,7.3126 3.4312,10.3352 3.4965,13.4703 3.5335,17.1871 3.6616,20.8561 4.0251,23.8453 4.5453,27.0546 4.9946,30.4522 5.1675,32.1262 A3.557,3.557 0 0 1 -1.9069,32.8755 T-2.0734,31.3446 -2.4744,28.1021 -2.9658,24.7893 -3.3822,21.2705 -3.5335,17.1872 -3.4965,13.4703 -3.4312,10.3352 -3.373,7.3126 -3.3357,4.1842 -3.3437,1.2473 -3.3673,0 A3.3673,3.3673 0 0 1 3.3673,0 Z" stroke-linecap="round" fill="#1d1d1d"/></g></g><g transform="matrix(1, 0, 0, 1, 667.6953, 612.9297)" opacity="1"><g transform="scale(1)"><path d="M1.5416,-2.8213 T2.7592,-2.1225 5.1989,-0.5909 7.5437,1.0763 10.3329,3.1474 13.2932,5.4495 15.825,7.4887 18.7045,9.7898 21.096,11.7317 21.8459,12.3466 A3.354,3.354 0 0 1 17.5945,17.5352 T16.8441,16.9208 14.5008,14.9148 11.6642,12.4666 9.2588,10.3586 6.5619,8.1087 2.9872,5.5124 -0.2969,3.468 -1.5416,2.8213 A3.215,3.215 0 0 1 1.5416,-2.8213 Z" stroke-linecap="round" fill="#1d1d1d"/></g></g><g transform="matrix(1, 0, 0, 1, 684.2734, 625.4414)" opacity="1"><g transform="scale(1)"><path d="M 0 0 m -3.702518949565097, 0 a 3.702518949565097,3.702518949565097 0 1,1 7.405037899130194,0 a 3.702518949565097,3.702518949565097 0 1,1 -7.405037899130194,0" stroke-linecap="round" fill="#1d1d1d"/></g></g><g transform="matrix(1, 0, 0, 1, 684.6563, 625.4844)" opacity="1"><g transform="scale(1)"><path d="M-2.5532,-2.2864 T-1.7358,-3.1648 0.3504,-5.4837 2.8037,-8.3744 4.8621,-11.0298 6.6046,-13.3557 9.2833,-16.5501 11.0934,-18.624 A3.6778,3.6778 0 0 1 16.2059,-13.3357 T15.5917,-12.7948 14.0172,-11.0815 12.0512,-8.7349 10.0694,-6.3856 7.9263,-3.8853 5.4395,-1.0459 3.3364,1.3775 2.5532,2.2864 A3.4273,3.4273 0 0 1 -2.5532,-2.2864 Z" stroke-linecap="round" fill="#1d1d1d"/></g></g><g transform="matrix(1, 0, 0, 1, 634.7266, 622.6523)" opacity="1"><g transform="scale(1)"><path d="M-2.9734,-1.0008 T-2.5818,-2.151 -1.3469,-5.4534 0.2562,-9.6215 2.0251,-14.077 3.7584,-18.5907 5.4746,-22.9832 7.6997,-27.8968 9.6233,-31.9085 10.9314,-34.6381 12.5814,-38.3996 14.6236,-43.2545 16.3122,-47.408 17.4916,-50.6286 18.483,-53.4541 19.2836,-55.6474 19.5933,-56.4884 A3.241,3.241 0 0 1 25.646,-54.1688 T25.3143,-53.3363 24.4171,-51.1903 23.2458,-48.4021 21.836,-45.13 20.0148,-40.9591 17.9269,-36.0485 16.2607,-32.185 15.0392,-29.4192 13.283,-25.4053 11.232,-20.6263 9.569,-16.3778 7.8745,-11.844 6.1394,-7.3397 4.5487,-3.3146 3.3569,-0.1517 2.9734,1.0008 A3.1373,3.1373 0 0 1 -2.9734,-1.0008 Z" stroke-linecap="round" fill="#1d1d1d"/></g></g><g transform="matrix(1, 0, 0, 1, 626.6797, 648.6953)" opacity="1"><g transform="scale(1)"><path d="M-3.0748,-0.4659 T-2.8032,-1.9946 -1.835,-6.1978 -0.2526,-11.1991 1.7489,-15.9175 3.9656,-20.5038 6.3022,-25.0849 7.5379,-27.4711 A3.0073,3.0073 0 0 1 12.903,-24.7525 T11.6973,-22.3207 9.4333,-17.8237 7.3187,-13.4556 5.4555,-9.1269 4.0551,-4.8577 3.2682,-1.0742 3.0748,0.4659 A3.1099,3.1099 0 0 1 -3.0748,-0.4659 Z" stroke-linecap="round" fill="#1d1d1d"/></g></g></svg>