<svg xmlns="http://www.w3.org/2000/svg" direction="ltr" width="152.40996024151343" height="222.1324909290143" viewBox="625.7039905421816 86.92116239645453 152.40996024151343 222.1324909290143" stroke-linecap="round" stroke-linejoin="round" data-color-mode="light" class="tl-container tl-theme__force-sRGB tl-theme__light" style="background-color: rgb(249, 250, 251);"><defs/><g transform="matrix(1, 0, 0, 1, 671.8888, 264.9204)" opacity="1"><g transform="scale(1)"><path d="M-2.201,-2.846 T-1.2298,-3.6027 0.8356,-5.359 2.8851,-7.4861 4.7572,-9.99 6.1982,-12.5313 6.7222,-13.6961 A3.8727,3.8727 0 0 1 13.9538,-10.9222 T13.2662,-9.4366 11.7375,-6.689 9.8541,-4.1526 7.6401,-1.7119 5.3613,0.3619 3.2276,2.0578 2.201,2.846 A3.5978,3.5978 0 0 1 -2.201,-2.846 ZM13.7501,-10.4774 T13.3045,-9.6167 12.2681,-7.3933 11.662,-4.6176 11.6546,-1.7345 11.7255,0.8868 11.7882,2.038 A3.9788,3.9788 0 0 1 3.8508,2.6049 T3.7649,0.909 3.6881,-2.2887 3.798,-5.244 4.3179,-8.2235 5.3357,-11.0527 6.4304,-13.2484 6.926,-14.1409 A3.8727,3.8727 0 0 1 13.7501,-10.4774 Z" stroke-linecap="round" fill="#1d1d1d"/></g></g><g transform="matrix(1, 0, 0, 1, 684.9233, 237.2824)" opacity="1"><g transform="scale(1)"><path d="M-2.6626,-1.557 T-1.948,-2.7453 -0.1732,-5.791 2.1406,-9.7897 4.0997,-13.209 5.5005,-15.7493 6.9177,-18.275 8.3627,-20.785 10.1834,-24.0092 12.2044,-28.0751 13.7232,-31.5121 14.8456,-34.1723 15.8975,-36.8893 17.0048,-39.8949 18.0435,-42.9801 19.1414,-47.1522 20.1375,-51.3102 21.0319,-55.3431 22.1397,-60.4778 23.2001,-65.6371 23.9371,-70.3815 24.22,-74.1949 24.2208,-77.4775 24.1127,-80.7294 24.0217,-84.7072 24.001,-87.06 A3.5164,3.5164 0 0 1 31.0231,-86.6707 T30.903,-84.7525 30.711,-81.348 30.5562,-78.4408 30.365,-75.4789 30.0235,-71.7538 29.324,-67.0778 28.5808,-63.1917 27.7038,-59.2561 26.4969,-54.1075 25.5478,-50.0354 24.8655,-47.1163 24.1629,-44.2825 23.3495,-41.3115 22.3841,-38.0372 21.3584,-34.8517 20.3164,-31.9478 19.224,-29.1623 17.5888,-25.4314 15.3463,-21.1064 13.4845,-17.8915 12.1174,-15.4238 10.7881,-12.9413 9.429,-10.2833 7.496,-6.7294 5.15,-2.718 3.3478,0.3514 2.6626,1.557 A3.0844,3.0844 0 0 1 -2.6626,-1.557 Z" stroke-linecap="round" fill="#1d1d1d"/></g></g><g transform="matrix(1, 0, 0, 1, 694.8334, 243.8019)" opacity="1"><g transform="scale(1)"><path d="M-2.5697,-1.3886 T-1.8719,-2.6582 -0.3519,-5.3083 1.4086,-8.1593 3.2944,-11.0622 5.2638,-14.0065 7.81,-17.4876 10.9745,-21.5176 14.1138,-25.4803 17.2247,-29.3851 20.4245,-33.3554 23.5099,-37.1832 26.3039,-40.7198 28.6611,-43.8701 30.7149,-46.7434 32.4691,-49.3464 34.5156,-52.7702 36.8896,-57.0525 38.8369,-60.8411 40.2971,-64.051 41.4471,-67.0865 42.4668,-70.0272 43.3633,-72.7744 44.3385,-75.6306 45.3357,-78.6018 46.1648,-81.8021 47.4069,-85.0567 48.2675,-86.584 A3.7232,3.7232 0 0 1 54.2936,-82.2097 T53.7631,-81.2342 52.8185,-78.8149 51.8824,-75.9956 50.7445,-73.2328 49.603,-70.5025 48.3986,-67.6668 46.9939,-64.6399 45.4746,-61.5532 43.6143,-58.2445 41.2404,-54.4275 38.3933,-50.1903 35.9384,-46.8238 33.9421,-44.2916 31.7087,-41.5234 29.2449,-38.4191 26.4792,-34.8509 23.5012,-30.959 20.4665,-26.9253 17.5654,-22.9148 14.7172,-18.8217 11.9896,-14.6887 9.774,-11.1177 7.9605,-8.1563 6.2541,-5.2918 4.6722,-2.503 3.2493,0.1093 2.5697,1.3886 A2.9209,2.9209 0 0 1 -2.5697,-1.3886 Z" stroke-linecap="round" fill="#1d1d1d"/></g></g><g transform="matrix(1, 0, 0, 1, 713.9428, 147.63)" opacity="1"><g transform="scale(1)"><path d="M-1.9041,-2.6481 T-0.9405,-3.3287 1.9661,-5.2923 5.4224,-7.6571 8.3931,-9.8711 11.0498,-12.065 13.5069,-14.5519 15.8968,-17.4685 18.1071,-20.5453 20.0162,-23.5509 21.6142,-26.1427 23.1511,-28.8181 23.9212,-30.3217 A3.7637,3.7637 0 0 1 30.7224,-27.0961 T29.503,-25.0218 27.4532,-21.751 25.8094,-19.2816 24.0891,-16.7417 22.2337,-14.2987 20.1144,-11.8242 17.757,-9.3054 15.2409,-6.9703 12.3117,-4.6455 9.0948,-2.3205 5.6427,0.0245 2.856,1.9513 1.9041,2.6481 A3.2616,3.2616 0 0 1 -1.9041,-2.6481 ZM27.5938,-32.4627 T27.6228,-32.4614 27.6519,-32.4601 A3.7652,3.7652 0 0 1 27.1076,-24.9493 T27.0787,-24.9522 27.0497,-24.9551 A3.7637,3.7637 0 0 1 27.5938,-32.4627 ZM31.1401,-28.5141 T31.0715,-27.0605 30.9231,-23.4344 30.7897,-19.2363 30.69,-15.0685 30.6243,-11.0007 30.6101,-7.5548 30.8256,-4.327 31.2929,-1.1077 31.817,1.811 32.4635,4.7952 33.1856,7.8874 34.1199,10.8696 34.7119,12.337 A3.711,3.711 0 0 1 28.0268,15.5612 T27.0722,12.842 25.7809,8.5205 25.0518,5.1981 24.4013,1.7491 23.9311,-1.772 23.6659,-5.5053 23.6075,-9.186 23.5729,-12.972 23.4949,-17.2092 23.4242,-21.3 23.4452,-24.8544 23.5538,-27.7019 23.6193,-28.8953 A3.7652,3.7652 0 0 1 31.1401,-28.5141 Z" stroke-linecap="round" fill="#1d1d1d"/></g></g><g transform="matrix(1, 0, 0, 1, 672.1296, 264.2657)" opacity="1"><g transform="scale(1)"><path d="M0.6816,-3.3088 T1.6249,-3.149 4.1922,-2.6447 6.7496,-2.2213 7.683,-2.1425 A3.6351,3.6351 0 0 1 6.8794,5.0831 T5.4469,4.8018 2.5953,4.1406 0.2473,3.5347 -0.6816,3.3088 A3.3783,3.3783 0 0 1 0.6816,-3.3088 Z" stroke-linecap="round" fill="#1d1d1d"/></g></g><g transform="matrix(1, 0, 0, 1, 675.9861, 234.1451)" opacity="1"><g transform="scale(1)"><path d="M1.7111,1.5669 T1.2355,2.1038 0.2252,3.4489 -0.9054,4.9888 -2.2888,6.4295 -3.4292,7.5749 -3.7822,8.0115 A2.5179,2.5179 0 0 1 -7.6189,4.7498 T-6.4458,3.6331 -4.6232,1.8057 -3.3344,0.2838 -2.2031,-1.0472 -1.7111,-1.5669 A2.3201,2.3201 0 0 1 1.7111,1.5669 Z" stroke-linecap="round" fill="#1d1d1d"/></g></g><g transform="matrix(1, 0, 0, 1, 676.4631, 233.9994)" opacity="1"><g transform="scale(1)"><path d="M1.6237,-1.7688 T2.1358,-1.3079 3.4105,-0.2594 5.0431,0.9323 6.7257,2.1574 8.3066,3.3687 9.8635,4.4596 11.532,5.3577 13.2637,6.1531 14.9737,6.994 16.6935,7.7974 18.4825,8.5193 20.2833,9.504 21.8198,10.8037 23.0738,12.301 24.1838,13.9502 25.2363,15.7083 26.2278,17.4675 26.9921,19.3484 27.4275,21.3567 27.6207,23.2499 27.6929,25.2413 27.7022,27.325 27.5534,29.3947 27.1649,31.3827 26.5867,33.3326 25.7561,35.2593 24.7345,36.9693 23.5508,38.5252 22.1808,39.8971 20.5175,41.0535 18.6781,42.1041 16.8826,43.0953 15.0865,44.018 13.2583,44.7313 11.2109,45.2516 9.1174,45.6084 7.0948,45.7391 5.0238,45.745 2.8867,45.7357 0.5495,45.6761 -1.6882,45.4116 -3.8356,44.8784 -6.0323,44.1665 -8.0377,43.3583 -9.8997,42.4258 -11.6297,41.3305 -13.3083,40.283 -15.0406,39.375 -16.7787,38.4857 -18.5119,37.4238 -19.9055,36.1123 -20.4345,35.4148 A2.6615,2.6615 0 0 1 -16.1673,32.2328 T-15.6434,32.7828 -14.1894,33.8105 -12.3981,34.7304 -10.704,35.6252 -9.011,36.6769 -7.2983,37.776 -5.4982,38.6948 -3.6035,39.4087 -1.7137,39.9555 0.2305,40.2953 2.4,40.3763 4.6492,40.3649 6.7866,40.3527 8.7633,40.2106 10.6647,39.8367 12.6388,39.1563 14.45,38.2609 16.1188,37.3482 17.8164,36.3865 19.3152,35.1683 20.5036,33.6151 21.3858,31.8987 21.9597,30.1074 22.2638,28.2609 22.3391,26.3149 22.295,24.3643 22.1456,22.468 21.6907,20.598 20.7804,18.7143 19.6845,16.8818 18.5598,15.2426 17.3207,13.742 17.4671,13.5438 17.2848,13.7202 15.3943,13.0121 13.6268,12.2117 11.8598,11.3058 10.0701,10.4456 8.3024,9.5539 6.5939,8.4865 4.9919,7.265 3.4772,6.0144 1.8712,4.7588 0.1997,3.4156 -1.1101,2.2495 -1.6237,1.7688 A2.401,2.401 0 0 1 1.6237,-1.7688 Z" stroke-linecap="round" fill="#1d1d1d"/></g></g><g transform="matrix(1, 0, 0, 1, 657.704, 267.4399)" opacity="1"><g transform="scale(1)"><path d="M0,-2.4043 T0.8019,-2.417 2.6748,-2.4536 4.787,-2.4631 6.8278,-2.3489 8.8204,-2.1355 10.7395,-1.9333 12.6811,-1.6664 14.6729,-1.3049 16.5928,-0.9878 18.5236,-0.8595 20.4946,-0.8689 22.4282,-0.8782 24.3288,-1.1325 26.2231,-1.7659 28.0979,-2.6222 29.8166,-3.6269 31.4086,-4.8588 32.6535,-6.4372 33.203,-8.3802 33.3119,-10.4412 32.9813,-12.3333 31.7378,-13.8395 29.9428,-14.8193 28.124,-15.483 26.1649,-16.0763 24.2209,-16.6626 22.3682,-17.4239 20.5373,-18.3947 18.7229,-19.3807 16.9757,-20.3077 15.2417,-21.2423 13.9292,-21.7915 13.5177,-21.8449 A2.6803,2.6803 0 0 1 14.7645,-27.0584 T16.153,-26.5811 18.3965,-25.6452 20.0964,-24.7513 21.902,-23.7891 23.7605,-22.7823 25.6082,-21.9521 27.4684,-21.3385 29.3351,-20.793 31.2385,-20.1707 33.0348,-19.3759 34.7495,-18.374 36.3485,-17.1804 37.6599,-15.7549 38.4869,-14.0187 38.7344,-12.0984 38.7255,-10.1694 38.6241,-8.1499 38.317,-6.0541 37.5943,-4.0575 36.4743,-2.3298 35.1513,-0.9068 33.6652,0.309 31.9448,1.4317 29.9525,2.4819 28.0242,3.319 26.2116,3.9119 24.3298,4.3125 22.4282,4.4582 20.4945,4.4489 18.5156,4.4366 16.4969,4.3124 14.4728,3.9885 12.4634,3.5765 10.5029,3.2535 8.5535,3.0136 6.62,2.7328 4.7152,2.5251 2.6748,2.4536 0.8019,2.417 0,2.4043 A2.4043,2.4043 0 0 1 0,-2.4043 Z" stroke-linecap="round" fill="#1d1d1d"/></g></g></svg>